<svg width="205" height="67" viewBox="0 0 205 67" fill="none" xmlns="http://www.w3.org/2000/svg">
<g clip-path="url(#clip0_803_144)">
<g clip-path="url(#clip1_803_144)">
<g clip-path="url(#clip2_803_144)">
<mask id="mask0_803_144" style="mask-type:luminance" maskUnits="userSpaceOnUse" x="18" y="18" width="80" height="36">
<path d="M97.9953 18H18.0046V53.29H97.9953V18Z" fill="white"/>
</mask>
<g mask="url(#mask0_803_144)">
<path d="M96.887 33.3399C96.2087 32.4878 95.1542 31.6282 93.8134 30.8092C94.1065 30.7755 94.3951 30.7109 94.668 30.605C96.1362 30.0346 96.8138 29.0991 96.9337 27.4768C97.0181 26.3367 96.4281 25.1197 95.2277 23.9567C93.9875 22.7556 90.9492 20.5295 84.5317 19.1144C78.9794 17.8897 72.4538 17.6698 65.6597 18.4776C55.0353 19.741 47.2168 22.9476 42.5285 25.4154C41.7353 25.8327 41.0042 26.2423 40.3338 26.6368C39.9209 25.9208 39.2947 25.2162 38.3439 24.7278C36.5253 23.7938 33.5605 23.8714 31.6488 25.8555C30.8654 26.6687 30.4732 27.6056 30.2793 28.2805C29.6837 27.8756 28.7325 27.4194 27.4733 27.4194C24.5943 27.4194 22.6421 29.2098 21.9843 30.9838C21.2913 32.8539 21.6898 34.4624 22.0349 35.3304C21.1462 35.546 19.668 36.1374 18.7541 37.7464C17.2335 40.4235 18.2116 43.3456 20.036 44.6243C21.3818 45.5677 23.1595 45.5437 24.4033 45.362C24.3756 46.088 24.3957 47.2887 24.6981 48.541C25.3508 51.2439 26.9939 52.8564 29.4499 53.2037C29.8668 53.2625 30.2599 53.2896 30.632 53.2896C33.3454 53.2896 34.9184 51.8444 36.1055 50.7537C36.5673 50.3292 36.9662 49.9626 37.3432 49.7584C37.7328 49.5471 38.7285 49.5381 39.7823 49.5283C42.4232 49.5036 46.4139 49.4666 47.8875 46.1435C48.1367 45.5815 48.2868 45.0328 48.3585 44.502C51.6372 43.9403 56.3265 43.4454 61.6061 43.8297C67.7404 44.2767 72.2477 46.3562 75.8693 48.0268C78.2598 49.1299 80.1486 50.0011 81.7934 50.0465C81.8818 50.049 81.9687 50.0501 82.0541 50.0501C83.5363 50.0501 84.579 49.6789 85.4114 48.861C86.0975 48.1872 86.4915 47.0544 86.3967 46.0351C87.4023 46.6022 88.4641 46.8222 89.4527 46.8222C90.5169 46.8222 91.4957 46.5684 92.2263 46.2227C93.1485 45.7862 93.8817 44.8387 94.1875 43.6882C94.5495 42.3274 94.2709 40.84 93.4055 39.4731C93.7022 39.5167 93.9951 39.5403 94.2799 39.5403C95.6608 39.5403 96.863 39.0366 97.4874 38.0864C98.2026 36.9978 98.2942 35.1077 96.8863 33.3387L96.887 33.3399ZM43.0495 26.3243C47.6545 23.9059 55.3358 20.7621 65.7809 19.52C75.8032 18.3281 89.0685 19.4453 94.5089 24.7143C95.4781 25.653 95.9581 26.5809 95.8978 27.3984C95.8087 28.602 95.3743 29.2058 94.2949 29.6249C92.9571 30.1448 90.8997 29.2896 90.8795 29.2809C90.8684 29.2762 90.8565 29.2744 90.8454 29.2704C89.5779 28.7079 88.1801 28.1869 86.6892 27.7286C82.6516 26.4873 75.9379 25.0736 66.8833 25.3889C58.0673 25.6962 50.8529 27.5566 46.4584 29.012C46.3956 28.9667 46.3345 28.9195 46.2688 28.8778C45.081 28.1208 43.071 27.6604 41.0412 28.6078C40.9884 28.3164 40.9033 27.9677 40.7719 27.5958C41.4645 27.1854 42.2225 26.7587 43.0495 26.3243ZM47.2698 44.7002C47.1973 45.0405 47.0885 45.379 46.9395 45.7146C45.7381 48.4237 42.4304 48.4542 39.7726 48.4789C38.4842 48.4909 37.4671 48.5003 36.852 48.8335C36.3623 49.0991 35.898 49.5254 35.4064 49.9772C34.1418 51.1391 32.568 52.5847 29.5935 52.1641C24.7214 51.475 25.4507 45.0645 25.4841 44.7926C25.5052 44.624 25.4438 44.4556 25.3203 44.3406C25.2234 44.2506 25.0977 44.2022 24.9688 44.2022C24.9329 44.2022 24.8966 44.2059 24.8607 44.2139C24.0349 44.3914 21.9692 44.7026 20.6274 43.7622C18.8191 42.4947 18.7146 39.9243 19.6547 38.2692C20.7135 36.4053 22.748 36.2622 22.8324 36.2572C23.0169 36.2474 23.1821 36.1393 23.2668 35.9734C23.3516 35.8076 23.3426 35.6088 23.2431 35.4513C23.2317 35.4331 22.1157 33.6206 22.9566 31.3524C23.3534 30.2816 24.7512 28.4695 27.4729 28.4695C29.2054 28.4695 30.1849 29.5436 30.224 29.5875C30.3619 29.7453 30.5799 29.8042 30.7774 29.7377C30.9749 29.6713 31.1142 29.4921 31.131 29.282C31.1322 29.2667 31.265 27.7583 32.3928 26.5881C34.149 24.7659 36.6861 25.0543 37.8731 25.6639C38.6186 26.0468 39.1134 26.6045 39.4423 27.1749C39.6333 27.5058 39.7676 27.8404 39.8631 28.1481C40.0782 28.8422 40.0925 29.397 40.0932 29.4456C40.095 29.6358 40.1989 29.8099 40.364 29.901C40.5292 29.9921 40.7302 29.9855 40.8896 29.8844C42.4419 28.8959 44.0336 29.0033 45.1377 29.4663C45.3492 29.5549 45.5431 29.6565 45.7152 29.766C45.9043 29.8865 46.0785 30.0313 46.2397 30.1906C47.2185 31.1568 47.686 32.7291 47.6415 33.661C47.6368 33.7618 47.6289 33.8598 47.6185 33.9555C47.5704 34.4044 47.4634 34.7952 47.3172 35.136C46.527 36.9814 44.5815 37.3457 44.481 37.3632C44.2756 37.3983 44.1108 37.5544 44.0627 37.759C44.0142 37.9644 44.0925 38.1796 44.2612 38.3045C44.2696 38.3106 44.8566 38.7508 45.5173 39.4957C45.7528 39.7613 45.997 40.0661 46.2285 40.4039C46.2591 40.4486 46.2903 40.4924 46.3205 40.5385C46.9998 41.573 47.3485 42.6017 47.3714 43.6152C47.3797 43.9791 47.3464 44.3406 47.2698 44.7002ZM84.6878 48.1088C84.0071 48.7776 83.1773 49.0352 81.8221 48.9974C80.3881 48.9576 78.5845 48.1255 76.3009 47.0721C72.7985 45.4563 68.0019 43.2433 61.6808 42.7828C56.4278 42.3996 51.738 42.8746 48.3998 43.4327C48.3316 42.1925 47.8677 41.0795 47.2964 40.1593C61.4849 37.033 74.5626 38.689 84.7101 44.9621C85.1822 45.2786 85.3258 45.7641 85.3615 46.1181C85.4318 46.8185 85.1489 47.656 84.6878 48.1088ZM93.185 43.4167C92.9611 44.2596 92.4249 44.9709 91.7865 45.2727C90.547 45.8595 88.4579 46.1317 86.6505 44.9679C86.5683 44.915 86.4666 44.8475 86.3456 44.7672C85.9924 44.5324 85.6346 44.3039 85.2742 44.0807C85.266 44.0753 85.2591 44.0687 85.2508 44.0637C85.2444 44.0593 85.2368 44.0572 85.2303 44.0532C74.7511 37.5845 61.2518 35.9193 46.6429 39.2315C46.2831 38.7776 45.9234 38.3988 45.6232 38.1095C46.746 37.6401 48.0731 36.6204 48.5259 34.7858C52.4414 33.6986 58.7721 32.3921 66.6995 32.342C74.4057 32.2919 80.3895 33.8043 84.0527 35.0805C88.9772 36.796 91.6296 38.7196 92.4041 39.8451C93.2095 41.0153 93.4863 42.2835 93.185 43.4167ZM96.6228 37.5065C95.9926 38.4651 94.1215 38.9046 92.0626 38.0032C90.4257 36.6505 87.6742 35.2318 84.3905 34.0877C80.6509 32.7846 74.5457 31.2433 66.6923 31.2919C58.9556 31.3408 52.6981 32.5764 48.6795 33.6588C48.7108 32.6612 48.291 31.0357 47.3179 29.8332C51.6752 28.4325 58.5631 26.7293 66.9196 26.4383C82.4502 25.8965 93.3204 30.5331 96.078 33.998C97.1509 35.3461 97.1125 36.7616 96.6228 37.5065Z" fill="#231F20"/>
<path d="M29.6748 35.5527C30.1283 35.0211 30.3498 34.3424 30.2985 33.6425C30.2471 32.9426 29.929 32.3043 29.4029 31.846C28.8766 31.3877 28.2051 31.1642 27.5128 31.2158C26.0827 31.3228 25.0055 32.5859 25.1118 34.0308C25.1631 34.7308 25.4813 35.3687 26.0073 35.8273C26.4838 36.242 27.0787 36.4648 27.701 36.4648C27.7663 36.4648 27.8317 36.4623 27.8974 36.4576C28.59 36.4057 29.2213 36.0842 29.6748 35.5527ZM28.901 34.3762H28.8977C28.6536 34.3762 28.4543 34.1771 28.4525 33.9296C28.4507 33.8413 28.4173 33.5685 28.287 33.403C28.0816 33.1425 27.85 33.1037 27.8403 33.1022C27.5958 33.0768 27.4231 32.8563 27.4482 32.6091C27.4733 32.362 27.6974 32.1828 27.9419 32.2081C28.0022 32.2143 28.5448 32.2859 28.9836 32.8424C29.3283 33.2801 29.3426 33.858 29.343 33.9226C29.3448 34.1712 29.1469 34.3744 28.901 34.3762Z" fill="#FFB1B5"/>
<path d="M34.0164 32.8039C34.4928 33.2186 35.0878 33.4414 35.7101 33.4414C35.7755 33.4414 35.8408 33.4389 35.9066 33.4342C36.5992 33.3823 37.2308 33.0608 37.6842 32.5292C38.1377 31.9977 38.3593 31.319 38.3079 30.6191C38.2764 30.1899 38.1438 29.7842 37.9252 29.4286C37.7873 29.2044 37.616 29.0001 37.4124 28.8226C37.3438 28.7628 37.2724 28.7076 37.1991 28.6557C36.7105 28.311 36.1241 28.147 35.5224 28.1923C34.0922 28.2994 33.015 29.5625 33.1212 31.0074C33.1726 31.7073 33.4904 32.3453 34.0164 32.8039ZM35.5227 29.6565C35.5579 29.4104 35.7845 29.2395 36.0271 29.2758C36.094 29.2856 36.1765 29.3063 36.2656 29.3382C36.5388 29.4355 36.8793 29.6485 37.0882 30.0331C37.1025 30.0597 37.1191 30.0832 37.1324 30.1112C37.4283 30.7505 37.2199 31.3107 37.1956 31.3728C37.1256 31.5477 36.9589 31.6539 36.7827 31.6539C36.7269 31.6539 36.6706 31.6435 36.616 31.621C36.388 31.5277 36.2782 31.2657 36.37 31.0353C36.3712 31.0324 36.4394 30.8339 36.3629 30.5894C36.3529 30.5575 36.3413 30.5251 36.3259 30.4921C36.2006 30.221 35.9026 30.1662 35.8997 30.1659C35.7392 30.1423 35.6128 30.0346 35.5543 29.8934C35.5241 29.8209 35.5105 29.7403 35.5227 29.6565Z" fill="#FFB1B5"/>
<path d="M23.2901 38.1144C22.6794 38.16 22.1228 38.4434 21.7228 38.9123C21.3228 39.381 21.1275 39.9794 21.1727 40.5967C21.218 41.2139 21.4984 41.7763 21.9623 42.1805C22.3824 42.5462 22.907 42.7425 23.4557 42.7425C23.5131 42.7425 23.5709 42.7404 23.6287 42.7361C24.2395 42.6903 24.796 42.4069 25.196 41.9382C25.596 41.4693 25.7914 40.871 25.7458 40.2538C25.6524 38.9793 24.5494 38.0204 23.2901 38.1144ZM24.8668 40.8487C24.8438 40.9801 24.7662 41.0872 24.6625 41.1525C24.5935 41.1956 24.5135 41.2211 24.4287 41.2211C24.4032 41.2211 24.3774 41.2189 24.3512 41.2142C24.1092 41.1714 23.9472 40.938 23.9896 40.6935C23.9896 40.6902 24.023 40.4264 23.8309 40.1873C23.6901 40.012 23.4758 39.9932 23.4664 39.9925C23.2208 39.9823 23.0334 39.7729 23.0435 39.5248C23.0535 39.2766 23.2668 39.0853 23.5102 39.0937C23.5727 39.0962 24.1307 39.1328 24.5221 39.6198C24.7332 39.8829 24.8237 40.1568 24.8596 40.3803C24.8995 40.6282 24.8729 40.8132 24.8668 40.8487Z" fill="#FFB1B5"/>
<path d="M44.9876 34.7959C45.1737 34.4298 45.2677 34.0107 45.2358 33.5714C45.1905 32.9541 44.9101 32.3917 44.4461 31.9874C44.0308 31.6253 43.5115 31.4308 42.9697 31.4269C42.9065 31.4264 42.8434 31.4269 42.7797 31.4316C42.4232 31.4584 42.086 31.5684 41.7865 31.7465C41.5733 31.8736 41.3787 32.0342 41.2125 32.2295C40.8124 32.6983 40.6172 33.2963 40.6627 33.9136C40.708 34.5308 40.9884 35.0932 41.4523 35.4974C41.8724 35.8631 42.3969 36.0594 42.9459 36.0594C43.0035 36.0594 43.0612 36.0573 43.1191 36.053C43.2386 36.0439 43.3546 36.0232 43.4681 35.9963C44.1373 35.8392 44.6855 35.3903 44.9876 34.7959ZM44.198 34.37C44.1356 34.5579 43.9622 34.6762 43.7762 34.6762C43.7291 34.6762 43.681 34.6686 43.634 34.6526C43.4009 34.5731 43.2757 34.3181 43.3542 34.0826C43.3844 33.9922 43.4249 33.8083 43.3575 33.5952C43.3137 33.4563 43.2188 33.3446 43.0756 33.2636C42.8612 33.1421 42.7851 32.8678 42.9055 32.6511C43.0257 32.4345 43.2972 32.3576 43.5115 32.4791C43.7493 32.6141 44.0626 32.8699 44.2052 33.3217C44.3427 33.7564 44.2774 34.1315 44.198 34.37Z" fill="#FFB1B5"/>
<path d="M41.3433 40.6434C41.3433 40.6434 41.343 40.6423 41.3426 40.6419C40.8115 39.3088 39.8561 38.3341 38.5799 37.8232C36.5655 37.017 34.2 37.501 32.6578 38.2234C28.8816 39.992 28.3434 43.2134 28.9028 44.9469C29.2978 46.1704 30.208 46.891 31.2985 46.891C31.4676 46.891 31.6414 46.8736 31.8181 46.838C32.8492 46.6305 33.5203 46.1794 34.1696 45.743C35.0776 45.1326 36.0162 44.5013 38.1491 44.3517C39.6488 44.2465 40.6703 43.7933 41.1853 43.0041C41.438 42.6165 41.5569 42.1521 41.54 41.6467C41.5296 41.3317 41.4668 41.0011 41.3501 40.6634C41.3479 40.6568 41.3458 40.6499 41.3433 40.6434ZM38.245 40.6799C37.4219 39.8345 36.1423 39.792 36.1293 39.7917C35.8841 39.7856 35.6895 39.5798 35.6948 39.332C35.7002 39.0841 35.8974 38.8893 36.148 38.8922C36.2147 38.8937 37.7975 38.9376 38.8794 40.049C39.0517 40.2261 39.0496 40.5109 38.8743 40.6851C38.7878 40.7715 38.6747 40.8143 38.5623 40.8143C38.4499 40.8143 38.3321 40.7692 38.245 40.6799ZM39.4255 42.5055C39.404 42.5088 39.3825 42.5102 39.3608 42.5102C39.1433 42.5102 38.953 42.3488 38.921 42.125C38.907 42.027 38.8887 41.9307 38.8668 41.8393C38.809 41.5977 38.9558 41.3549 39.195 41.2965C39.4338 41.2381 39.6747 41.3864 39.7322 41.6282C39.7605 41.7468 39.7838 41.8705 39.8022 41.9957C39.8374 42.2418 39.6689 42.47 39.4255 42.5055Z" fill="#FFB1B5"/>
<path d="M84.7104 44.964C74.5629 38.691 61.4847 37.0348 47.2966 40.1613C47.868 41.0814 48.3318 42.1944 48.4 43.4346C51.7379 42.8765 56.4277 42.4015 61.6811 42.7848C68.0021 43.2452 72.7987 45.4582 76.301 47.074C78.5847 48.1274 80.3883 48.9598 81.8224 48.9993C83.1775 49.0371 84.0073 48.7795 84.688 48.1107C85.1492 47.6578 85.4328 46.8211 85.3624 46.1205C85.3269 45.7659 85.1826 45.2805 84.7104 44.964Z" fill="#9DD9AF"/>
<path d="M66.9189 26.439C58.5628 26.73 51.6746 28.4332 47.3173 29.8339C48.29 31.0364 48.7101 32.6619 48.6789 33.6595C52.6975 32.5775 58.9549 31.3415 66.6917 31.2926C74.5451 31.244 80.6503 32.7857 84.3899 34.0884C87.6739 35.2325 90.4253 36.6509 92.062 38.0039C94.1208 38.9053 95.9923 38.4658 96.622 37.5073C97.1119 36.7623 97.1499 35.3464 96.077 33.9984C93.3195 30.5335 82.4498 25.8972 66.9189 26.439Z" fill="#9DDEF7"/>
<path d="M46.2687 28.8782C46.3344 28.9199 46.3955 28.9671 46.4583 29.0124C50.8532 27.557 58.0675 25.6963 66.8832 25.3893C75.9377 25.074 82.6515 26.4877 86.6891 27.729C88.1797 28.1873 89.5778 28.7083 90.8453 29.2708C90.8568 29.2748 90.8683 29.2766 90.8795 29.2813C90.8996 29.29 92.957 30.1453 94.2948 29.6253C95.3741 29.2058 95.8086 28.6024 95.8977 27.3988C95.958 26.5816 95.478 25.6534 94.5088 24.7147C89.0683 19.4457 75.8035 18.3288 65.7809 19.5204C55.3357 20.7625 47.6543 23.9063 43.0493 26.3247C42.2224 26.7591 41.464 27.1858 40.7714 27.5962C40.9032 27.9681 40.9883 28.3172 41.0407 28.6082C43.0706 27.6608 45.0809 28.1212 46.2687 28.8782Z" fill="#A1FCE7"/>
<path d="M84.0518 35.0808C80.3887 33.8046 74.4049 32.2923 66.6986 32.3423C58.7712 32.3924 52.4406 33.6991 48.525 34.7862C48.0722 36.6208 46.7452 37.6404 45.6224 38.11C45.9226 38.3991 46.2823 38.778 46.6421 39.2319C61.2506 35.9198 74.7503 37.5849 85.2295 44.0535C85.2363 44.0575 85.2435 44.0598 85.25 44.0641C85.2582 44.0695 85.2654 44.0757 85.2734 44.0812C85.6342 44.3043 85.9914 44.5333 86.3448 44.7677C86.4659 44.8483 86.5674 44.9157 86.6496 44.9684C88.4571 46.132 90.5462 45.8599 91.7857 45.2732C92.4244 44.9709 92.9601 44.2596 93.1842 43.4171C93.4855 42.2839 93.2079 41.0154 92.4026 39.8456C91.6277 38.7196 88.9764 36.7964 84.0518 35.0808Z" fill="#FFE66A"/>
<path d="M46.2284 40.4041C45.9968 40.0662 45.7527 39.7615 45.5171 39.4958C44.8565 38.7512 44.2694 38.3108 44.2611 38.3046C44.0923 38.1798 44.0141 37.965 44.0626 37.7592C44.111 37.5542 44.2755 37.3986 44.4809 37.3634C44.5811 37.346 46.5264 36.9817 47.3171 35.1361C47.4629 34.7955 47.5699 34.4046 47.6184 33.9558C47.6287 33.8604 47.6363 33.762 47.6413 33.6611C47.6859 32.7293 47.2183 31.1571 46.2396 30.1908C46.078 30.0314 45.9042 29.8867 45.7149 29.7663C45.543 29.6566 45.3491 29.555 45.1376 29.4665C44.0335 29.0035 42.4417 28.8957 40.8895 29.8845C40.7301 29.9858 40.5293 29.9922 40.3638 29.9012C40.1986 29.8102 40.0949 29.6359 40.0931 29.4458C40.0924 29.3972 40.078 28.8427 39.8629 28.1482C39.7678 27.8405 39.6332 27.506 39.4422 27.1751C39.1132 26.6046 38.6185 26.0469 37.873 25.6641C36.686 25.0545 34.1488 24.766 32.3926 26.5883C31.2648 27.7585 31.1319 29.2673 31.1309 29.2822C31.1139 29.4919 30.975 29.6711 30.7772 29.7379C30.5798 29.8043 30.3618 29.7452 30.2239 29.5877C30.1848 29.5441 29.2056 28.4697 27.4727 28.4697C24.7514 28.4697 23.3536 30.2819 22.9564 31.3527C22.1159 33.6209 23.2318 35.4333 23.243 35.4515C23.3421 35.6089 23.3511 35.8078 23.2667 35.9736C23.1819 36.1394 23.0168 36.2475 22.8322 36.2574C22.7478 36.2625 20.713 36.4054 19.6545 38.2694C18.7145 39.9244 18.8193 42.4949 20.6272 43.7623C21.969 44.7029 24.0344 44.3915 24.8606 44.2141C24.8965 44.2065 24.9327 44.2025 24.9686 44.2025C25.0975 44.2025 25.2232 44.2511 25.3202 44.3407C25.444 44.4557 25.5051 44.6241 25.4839 44.7929C25.4505 45.065 24.7209 51.4756 29.5934 52.1642C32.5679 52.5848 34.1419 51.1392 35.4063 49.9773C35.8979 49.526 36.362 49.0992 36.8519 48.8336C37.4668 48.5002 38.4845 48.4907 39.7725 48.4791C42.4303 48.4544 45.7379 48.4236 46.9394 45.7149C47.0883 45.3793 47.1971 45.0407 47.2697 44.7003C47.3462 44.3407 47.3796 43.979 47.3713 43.615C47.3483 42.602 46.9993 41.5732 46.3203 40.5383C46.2902 40.4923 46.2589 40.4487 46.2284 40.4041ZM41.2119 32.2296C41.3782 32.0345 41.5728 31.8737 41.7861 31.7466C42.0855 31.5682 42.4224 31.4582 42.7793 31.4317C42.8428 31.427 42.906 31.4263 42.9691 31.427C43.5113 31.431 44.0302 31.6255 44.4457 31.9877C44.9095 32.3919 45.19 32.9543 45.2352 33.5715C45.2676 34.011 45.1731 34.43 44.9871 34.7962C44.6852 35.3904 44.1365 35.84 43.4669 35.9972C43.3533 36.0237 43.2374 36.0447 43.1178 36.0538C43.0601 36.0581 43.0022 36.0604 42.9448 36.0604C42.3958 36.0604 41.8712 35.864 41.4511 35.4983C40.9871 35.094 40.7067 34.5316 40.6615 33.9144C40.6162 33.2972 40.8123 32.6985 41.2119 32.2296ZM35.5219 28.1918C36.1236 28.1464 36.71 28.3104 37.1986 28.6551C37.2719 28.707 37.3433 28.7622 37.4119 28.8221C37.6152 28.9991 37.7868 29.2038 37.9247 29.428C38.1434 29.7837 38.2763 30.1893 38.3075 30.6185C38.3589 31.3186 38.1372 31.9971 37.6838 32.5287C37.2303 33.0602 36.5991 33.3817 35.9061 33.4336C35.8403 33.4387 35.775 33.4409 35.7096 33.4409C35.0874 33.4409 34.492 33.2181 34.016 32.8033C33.4899 32.345 33.1718 31.7071 33.1204 31.0068C33.0145 29.5616 34.0917 28.2988 35.5219 28.1918ZM25.1963 41.9386C24.7963 42.4074 24.2397 42.6908 23.629 42.7365C23.5712 42.7409 23.5133 42.7431 23.4559 42.7431C22.9073 42.7431 22.3823 42.5468 21.9626 42.1809C21.4986 41.7768 21.2182 41.2144 21.173 40.5971C21.1277 39.9799 21.3231 39.382 21.7231 38.9127C22.1231 38.444 22.6796 38.1606 23.2904 38.1148C24.5496 38.0208 25.653 38.9803 25.7464 40.2542C25.7916 40.8715 25.5959 41.4695 25.1963 41.9386ZM27.7004 36.4653C27.0781 36.4653 26.4828 36.2425 26.0067 35.8277C25.4807 35.3695 25.1625 34.7316 25.1112 34.0312C25.0053 32.5859 26.0824 31.3233 27.5122 31.2162C28.2045 31.1643 28.8763 31.3882 29.4023 31.8465C29.9283 32.3048 30.2465 32.9431 30.2978 33.643C30.3492 34.3429 30.1277 35.0214 29.6742 35.553C29.2207 36.0846 28.5894 36.4061 27.8964 36.458C27.8307 36.4631 27.7657 36.4653 27.7004 36.4653ZM41.1854 43.0051C40.6705 43.7943 39.6489 44.2475 38.1491 44.3527C36.0163 44.5022 35.0774 45.1335 34.1696 45.7439C33.5205 46.1804 32.8494 46.6315 31.8181 46.839C31.6414 46.8745 31.4677 46.8919 31.2985 46.8919C30.208 46.8919 29.2979 46.1713 28.9029 44.9478C28.3435 43.2145 28.8817 39.993 32.658 38.2245C34.2002 37.502 36.5657 37.0179 38.58 37.8242C39.8565 38.335 40.8116 39.3097 41.3426 40.6429C41.3426 40.6436 41.343 40.6439 41.3433 40.6443C41.3458 40.6509 41.3484 40.6574 41.3505 40.6639C41.4672 41.0017 41.53 41.3322 41.5405 41.6472C41.5573 42.1527 41.4382 42.6175 41.1854 43.0051Z" fill="white"/>
<path d="M24.5224 39.6201C24.1314 39.1331 23.573 39.0964 23.5106 39.0939C23.2671 39.0852 23.0538 39.2763 23.0438 39.5249C23.0337 39.7731 23.2212 39.9825 23.4668 39.9926C23.4757 39.9934 23.6904 40.0123 23.8312 40.1875C24.0233 40.427 23.9903 40.6904 23.9899 40.6937C23.9475 40.9383 24.1095 41.1716 24.3515 41.2144C24.3773 41.2192 24.4036 41.2213 24.429 41.2213C24.5138 41.2213 24.5938 41.1959 24.6628 41.1527C24.7666 41.0874 24.8441 40.9804 24.8671 40.849C24.8732 40.8135 24.9001 40.6284 24.8603 40.3806C24.8244 40.1574 24.7335 39.8831 24.5224 39.6201Z" fill="white"/>
<path d="M27.9416 32.2081C27.6971 32.1823 27.473 32.3615 27.4479 32.609C27.4227 32.8561 27.5954 33.0764 27.84 33.1021C27.8497 33.1036 28.0816 33.1425 28.2866 33.4029C28.417 33.5684 28.4504 33.8413 28.4522 33.9294C28.454 34.1769 28.6529 34.3761 28.8974 34.3761H28.9006C29.1466 34.3743 29.3444 34.1715 29.3426 33.923C29.3423 33.8584 29.3279 33.2803 28.9832 32.8427C28.5444 32.2861 28.0019 32.2142 27.9416 32.2081Z" fill="white"/>
<path d="M35.8991 30.1642C35.9021 30.1646 36.2001 30.2197 36.3254 30.4904C36.3409 30.5235 36.3524 30.5557 36.3624 30.5877C36.4388 30.8323 36.3706 31.0307 36.3696 31.0337C36.2773 31.2641 36.3876 31.5261 36.6155 31.6192C36.6701 31.6418 36.7268 31.6523 36.7821 31.6523C36.9581 31.6523 37.125 31.5459 37.1951 31.3711C37.2198 31.3094 37.4281 30.7487 37.1318 30.1094C37.1189 30.0812 37.1021 30.0579 37.0877 30.0314C36.8787 29.6468 36.5384 29.4338 36.2651 29.3366C36.1761 29.305 36.0938 29.2839 36.0267 29.2741C35.7843 29.2382 35.5574 29.4088 35.5221 29.6548C35.5104 29.7386 35.5233 29.8196 35.5534 29.8921C35.612 30.0328 35.7387 30.1407 35.8991 30.1642Z" fill="white"/>
<path d="M43.0755 33.2637C43.2187 33.345 43.3136 33.4564 43.3574 33.5954C43.4245 33.8084 43.3844 33.992 43.3541 34.0827C43.2756 34.3182 43.4008 34.5732 43.6339 34.6528C43.6809 34.6686 43.729 34.6763 43.7761 34.6763C43.9621 34.6763 44.1351 34.5577 44.1979 34.3701C44.2773 34.132 44.343 33.7569 44.2054 33.3217C44.0625 32.87 43.7495 32.6142 43.5118 32.4793C43.2974 32.3576 43.0259 32.4346 42.9057 32.6512C42.7854 32.8678 42.861 33.1421 43.0755 33.2637Z" fill="white"/>
<path d="M39.7318 41.6298C39.6739 41.3881 39.433 41.2398 39.1945 41.2981C38.9559 41.3566 38.8086 41.5997 38.8665 41.841C38.8883 41.9324 38.9066 42.0286 38.9206 42.1266C38.9526 42.3505 39.1429 42.5118 39.3605 42.5118C39.3817 42.5118 39.4032 42.5104 39.4251 42.5071C39.6686 42.4716 39.8369 42.2434 39.8018 41.9973C39.7838 41.8722 39.7605 41.7484 39.7318 41.6298Z" fill="white"/>
<path d="M38.8794 40.0505C37.7972 38.9391 36.2148 38.8949 36.1479 38.8937C35.8974 38.8909 35.7002 39.0853 35.6948 39.3335C35.6892 39.5814 35.8837 39.7871 36.1294 39.7932C36.1423 39.7936 37.4219 39.836 38.2449 40.6816C38.3322 40.7711 38.4471 40.8158 38.5624 40.8158C38.6777 40.8158 38.7879 40.773 38.8743 40.6866C39.0496 40.5124 39.0517 40.2276 38.8794 40.0505Z" fill="white"/>
</g>
</g>
</g>
</g>
<g clip-path="url(#clip3_803_144)">
<g clip-path="url(#clip4_803_144)">
<g clip-path="url(#clip5_803_144)">
<path d="M108.056 40.7283C107.656 40.7283 107.369 40.6033 107.194 40.3534C107.019 40.1034 106.969 39.7535 107.044 39.3036L108.769 28.4117C108.831 28.0118 108.975 27.7119 109.2 27.5119C109.425 27.3119 109.737 27.212 110.137 27.212C110.537 27.212 110.818 27.3369 110.981 27.5869C111.156 27.8368 111.206 28.1868 111.131 28.6367L110.456 32.8735H117.261L117.973 28.4117C118.036 28.0118 118.173 27.7119 118.386 27.5119C118.611 27.3119 118.923 27.212 119.323 27.212C119.723 27.212 120.01 27.3369 120.185 27.5869C120.36 27.8244 120.41 28.1743 120.335 28.6367L118.611 39.5098C118.548 39.9097 118.404 40.2159 118.179 40.4284C117.967 40.6284 117.661 40.7283 117.261 40.7283C116.848 40.7283 116.555 40.6033 116.38 40.3534C116.217 40.1034 116.174 39.7535 116.249 39.3036L116.942 34.8793H110.137L109.406 39.5098C109.343 39.9097 109.2 40.2159 108.975 40.4284C108.762 40.6284 108.456 40.7283 108.056 40.7283ZM122.456 44.1027C122.156 44.1027 121.925 44.0339 121.762 43.8965C121.6 43.759 121.512 43.5778 121.5 43.3528C121.487 43.1404 121.556 42.9091 121.706 42.6592L123.487 39.7347L123.337 40.7096L121.181 32.8735C121.094 32.561 121.081 32.2861 121.144 32.0486C121.206 31.7986 121.331 31.6049 121.519 31.4675C121.719 31.33 121.962 31.2612 122.25 31.2612C122.575 31.2612 122.818 31.3425 122.981 31.5049C123.156 31.6549 123.287 31.9299 123.375 32.3298L124.874 38.5349H124.293L127.967 32.1048C128.142 31.8049 128.324 31.5924 128.511 31.4675C128.699 31.33 128.942 31.2612 129.242 31.2612C129.542 31.2612 129.773 31.33 129.936 31.4675C130.111 31.6049 130.205 31.7861 130.217 32.0111C130.242 32.2236 130.18 32.461 130.03 32.7235L123.731 43.2591C123.556 43.5591 123.375 43.7715 123.187 43.8965C123 44.0339 122.756 44.1027 122.456 44.1027ZM130.63 44.1027C130.268 44.1027 129.999 43.984 129.824 43.7465C129.649 43.509 129.593 43.1779 129.656 42.7529L131.287 32.461C131.349 32.0611 131.493 31.7612 131.718 31.5612C131.943 31.3612 132.249 31.2612 132.636 31.2612C132.999 31.2612 133.255 31.38 133.405 31.6174C133.567 31.8549 133.617 32.1923 133.555 32.6297L133.386 33.6796L133.349 33.1172C133.699 32.5048 134.149 32.0361 134.698 31.7112C135.261 31.3862 135.898 31.2237 136.611 31.2237C137.311 31.2237 137.917 31.3862 138.429 31.7112C138.954 32.0236 139.36 32.4798 139.648 33.0797C139.935 33.6671 140.079 34.3669 140.079 35.1793C140.079 36.2166 139.891 37.1602 139.516 38.01C139.154 38.8474 138.629 39.516 137.942 40.0159C137.254 40.5159 136.429 40.7658 135.467 40.7658C134.767 40.7658 134.142 40.5971 133.592 40.2596C133.055 39.9222 132.68 39.4223 132.468 38.7599H132.636L131.961 42.9967C131.899 43.3841 131.762 43.6653 131.549 43.8403C131.337 44.0152 131.03 44.1027 130.63 44.1027ZM135.036 38.9849C135.611 38.9849 136.092 38.8224 136.479 38.4975C136.879 38.1725 137.186 37.7288 137.398 37.1664C137.61 36.604 137.717 35.9792 137.717 35.2918C137.717 34.5544 137.535 33.992 137.173 33.6046C136.823 33.2046 136.336 33.0047 135.711 33.0047C135.148 33.0047 134.667 33.1672 134.267 33.4921C133.867 33.817 133.561 34.2607 133.349 34.8231C133.136 35.373 133.03 35.9979 133.03 36.6978C133.03 37.4351 133.205 38.0038 133.555 38.4037C133.917 38.7912 134.411 38.9849 135.036 38.9849ZM144.021 40.7658C143.371 40.7658 142.815 40.6284 142.353 40.3534C141.89 40.0784 141.559 39.6535 141.359 39.0786C141.172 38.5037 141.147 37.7725 141.284 36.8852L142.015 32.3485C142.078 31.9736 142.215 31.6987 142.428 31.5237C142.64 31.3487 142.928 31.2612 143.29 31.2612C143.677 31.2612 143.959 31.3737 144.134 31.5987C144.321 31.8111 144.384 32.1298 144.321 32.5548L143.646 36.8665C143.546 37.5539 143.596 38.0663 143.796 38.4037C144.009 38.7412 144.396 38.9099 144.958 38.9099C145.658 38.9099 146.227 38.6787 146.664 38.2163C147.102 37.7538 147.383 37.1227 147.508 36.3228L148.127 32.3485C148.189 31.9736 148.327 31.6987 148.539 31.5237C148.752 31.3487 149.039 31.2612 149.401 31.2612C149.801 31.2612 150.089 31.3737 150.264 31.5987C150.439 31.8236 150.495 32.1486 150.432 32.5735L149.326 39.6223C149.214 40.3596 148.789 40.7283 148.052 40.7283C147.689 40.7283 147.42 40.6284 147.245 40.4284C147.071 40.2284 147.008 39.9222 147.058 39.5098L147.245 38.16L147.377 38.6662C147.052 39.3536 146.596 39.8785 146.008 40.2409C145.433 40.5909 144.771 40.7658 144.021 40.7658ZM152.266 40.7283C151.891 40.7283 151.616 40.6158 151.441 40.3909C151.278 40.1534 151.228 39.8222 151.291 39.3973L152.397 32.386C152.459 32.0111 152.603 31.7299 152.828 31.5424C153.053 31.355 153.347 31.2612 153.709 31.2612C154.072 31.2612 154.334 31.3737 154.496 31.5987C154.671 31.8236 154.728 32.1486 154.665 32.5735L154.496 33.6233H154.309C154.559 32.886 154.971 32.3173 155.546 31.9174C156.121 31.5049 156.802 31.2737 157.59 31.2237C157.94 31.1988 158.171 31.2487 158.283 31.3737C158.408 31.4987 158.471 31.7049 158.471 31.9924C158.471 32.4048 158.377 32.711 158.19 32.9109C158.002 33.0984 157.708 33.2109 157.308 33.2484L156.765 33.3046C155.927 33.3921 155.328 33.6483 154.965 34.0732C154.603 34.4857 154.359 35.0668 154.234 35.8167L153.634 39.6035C153.584 39.9784 153.44 40.2596 153.203 40.4471C152.978 40.6346 152.666 40.7283 152.266 40.7283ZM159.113 40.7283C158.739 40.7283 158.464 40.6158 158.289 40.3909C158.126 40.1534 158.076 39.8222 158.139 39.3973L159.245 32.386C159.307 32.0111 159.451 31.7299 159.676 31.5424C159.901 31.355 160.194 31.2612 160.557 31.2612C160.919 31.2612 161.182 31.3737 161.344 31.5987C161.519 31.8236 161.576 32.1486 161.513 32.5735L161.344 33.6233H161.157C161.407 32.886 161.819 32.3173 162.394 31.9174C162.969 31.5049 163.65 31.2737 164.438 31.2237C164.787 31.1988 165.019 31.2487 165.131 31.3737C165.256 31.4987 165.319 31.7049 165.319 31.9924C165.319 32.4048 165.225 32.711 165.037 32.9109C164.85 33.0984 164.556 33.2109 164.156 33.2484L163.613 33.3046C162.775 33.3921 162.175 33.6483 161.813 34.0732C161.451 34.4857 161.207 35.0668 161.082 35.8167L160.482 39.6035C160.432 39.9784 160.288 40.2596 160.051 40.4471C159.826 40.6346 159.513 40.7283 159.113 40.7283ZM166.318 40.7283C165.905 40.7283 165.605 40.6096 165.418 40.3721C165.23 40.1222 165.168 39.7848 165.23 39.3598L166.936 28.5242C166.999 28.1368 167.142 27.8493 167.367 27.6619C167.605 27.4619 167.917 27.3619 168.305 27.3619H174.716C175.041 27.3619 175.291 27.4307 175.466 27.5681C175.641 27.6931 175.728 27.8806 175.728 28.1305C175.728 28.4805 175.628 28.7617 175.428 28.9741C175.241 29.1741 174.966 29.2741 174.604 29.2741H169.242L168.642 33.0047H173.423C173.747 33.0047 173.997 33.0734 174.172 33.2109C174.347 33.3359 174.435 33.5233 174.435 33.7733C174.435 34.1232 174.335 34.4044 174.135 34.6169C173.947 34.8169 173.672 34.9168 173.31 34.9168H168.342L167.611 39.5473C167.486 40.3346 167.055 40.7283 166.318 40.7283ZM176.727 40.7283C176.364 40.7283 176.095 40.6096 175.92 40.3721C175.758 40.1222 175.708 39.7848 175.77 39.3598L176.877 32.4235C176.939 32.0361 177.083 31.7487 177.308 31.5612C177.533 31.3612 177.839 31.2612 178.226 31.2612C178.589 31.2612 178.851 31.38 179.014 31.6174C179.189 31.8549 179.245 32.1923 179.182 32.6297L178.076 39.566C178.014 39.9535 177.87 40.2471 177.645 40.4471C177.433 40.6346 177.126 40.7283 176.727 40.7283ZM178.526 29.5365C178.101 29.5365 177.783 29.4366 177.57 29.2366C177.37 29.0241 177.289 28.7304 177.326 28.3555C177.376 27.9306 177.539 27.6119 177.814 27.3994C178.089 27.1745 178.457 27.062 178.92 27.062C179.345 27.062 179.664 27.1682 179.876 27.3807C180.088 27.5806 180.17 27.8681 180.12 28.243C180.07 28.668 179.907 28.9929 179.632 29.2179C179.37 29.4303 179.001 29.5365 178.526 29.5365Z" fill="#A1FCE7"/>
</g>
</g>
</g>
<defs>
<clipPath id="clip0_803_144">
<rect width="80" height="35.29" fill="white" transform="translate(18 18)"/>
</clipPath>
<clipPath id="clip1_803_144">
<rect width="80" height="35.29" fill="white" transform="translate(18 18)"/>
</clipPath>
<clipPath id="clip2_803_144">
<rect width="79.9907" height="35.29" fill="white" transform="translate(18.0046 18)"/>
</clipPath>
<clipPath id="clip3_803_144">
<rect width="74" height="17.76" fill="white" transform="translate(106 26.765)"/>
</clipPath>
<clipPath id="clip4_803_144">
<rect width="74" height="17.76" fill="white" transform="translate(106 26.765)"/>
</clipPath>
<clipPath id="clip5_803_144">
<rect width="74" height="17.76" fill="white" transform="translate(106 26.765)"/>
</clipPath>
</defs>
</svg>
