<svg width="150" height="150" viewBox="0 0 150 150" fill="none" xmlns="http://www.w3.org/2000/svg">
<g clip-path="url(#clip0_803_83)">
<g clip-path="url(#clip1_803_83)">
<g clip-path="url(#clip2_803_83)">
<mask id="mask0_803_83" style="mask-type:luminance" maskUnits="userSpaceOnUse" x="21" y="68" width="108" height="48">
<path d="M128.994 68H21.0063V115.642H128.994V68Z" fill="white"/>
</mask>
<g mask="url(#mask0_803_83)">
<path d="M127.497 88.7088C126.582 87.5586 125.158 86.398 123.348 85.2924C123.744 85.2469 124.133 85.1597 124.502 85.0167C126.484 84.2467 127.399 82.9838 127.56 80.7936C127.674 79.2545 126.878 77.6115 125.257 76.0415C123.583 74.4201 119.481 71.4148 110.818 69.5044C103.322 67.8511 94.5127 67.5543 85.3406 68.6447C70.9976 70.3504 60.4427 74.6792 54.1135 78.0108C53.0427 78.5741 52.0557 79.1271 51.1507 79.6596C50.5932 78.6931 49.7479 77.7418 48.4643 77.0825C46.0092 75.8216 42.0067 75.9264 39.4259 78.605C38.3683 79.7027 37.8388 80.9675 37.5771 81.8787C36.773 81.332 35.4889 80.7162 33.7889 80.7162C29.9023 80.7162 27.2668 83.1332 26.3788 85.5281C25.4433 88.0528 25.9813 90.2243 26.4471 91.3961C25.2474 91.687 23.2518 92.4855 22.0181 94.6576C19.9653 98.2717 21.2857 102.217 23.7486 103.943C25.5654 105.216 27.9653 105.184 29.6445 104.939C29.6071 105.919 29.6343 107.54 30.0424 109.23C30.9237 112.879 33.1418 115.056 36.4574 115.525C37.0202 115.604 37.5509 115.641 38.0532 115.641C41.7164 115.641 43.8399 113.69 45.4424 112.218C46.0659 111.644 46.6044 111.15 47.1134 110.874C47.6393 110.589 48.9834 110.576 50.4062 110.563C53.9713 110.53 59.3588 110.48 61.3482 105.994C61.6845 105.235 61.8871 104.494 61.984 103.778C66.4102 103.019 72.7408 102.351 79.8683 102.87C88.1495 103.474 94.2344 106.281 99.1236 108.536C102.351 110.025 104.901 111.201 107.121 111.263C107.24 111.266 107.358 111.268 107.473 111.268C109.474 111.268 110.882 110.767 112.005 109.662C112.932 108.753 113.464 107.223 113.336 105.847C114.693 106.613 116.127 106.91 117.461 106.91C118.898 106.91 120.219 106.567 121.206 106.101C122.45 105.511 123.44 104.232 123.853 102.679C124.342 100.842 123.966 98.8341 122.797 96.9887C123.198 97.0475 123.593 97.0794 123.978 97.0794C125.842 97.0794 127.465 96.3994 128.308 95.1166C129.274 93.647 129.397 91.0953 127.496 88.7072L127.497 88.7088ZM54.8168 79.2379C61.0336 75.973 71.4034 71.7288 85.5043 70.0521C99.0343 68.4429 116.942 69.9512 124.287 77.0644C125.595 78.3316 126.244 79.5842 126.162 80.6878C126.042 82.3127 125.455 83.1278 123.998 83.6936C122.192 84.3955 119.415 83.241 119.387 83.2292C119.372 83.2228 119.356 83.2204 119.341 83.215C117.63 82.4557 115.743 81.7523 113.73 81.1336C108.28 79.4578 99.2162 77.5493 86.9925 77.975C75.0908 78.3899 65.3515 80.9014 59.4188 82.8662C59.334 82.805 59.2516 82.7413 59.1628 82.685C57.5594 81.6631 54.8459 81.0415 52.1057 82.3205C52.0344 81.9272 51.9194 81.4564 51.742 80.9543C52.6771 80.4003 53.7004 79.8242 54.8168 79.2379ZM60.5143 104.045C60.4164 104.505 60.2696 104.962 60.0683 105.415C58.4465 109.072 53.981 109.113 50.393 109.147C48.6538 109.163 47.2806 109.175 46.4502 109.625C45.7891 109.984 45.1623 110.559 44.4986 111.169C42.7915 112.738 40.6668 114.689 36.6513 114.122C30.0739 113.191 31.0584 104.537 31.1035 104.17C31.1321 103.942 31.0492 103.715 30.8825 103.56C30.7516 103.438 30.5819 103.373 30.4079 103.373C30.3594 103.373 30.3105 103.378 30.262 103.389C29.1471 103.628 26.3584 104.049 24.547 102.779C22.1058 101.068 21.9648 97.5978 23.2338 95.3634C24.6633 92.8471 27.4098 92.654 27.5237 92.6472C27.7729 92.634 27.9959 92.488 28.1103 92.2641C28.2247 92.0402 28.2125 91.7718 28.0783 91.5592C28.0628 91.5347 26.5562 89.0879 27.6915 86.0258C28.2271 84.5802 30.1142 82.1339 33.7885 82.1339C36.1273 82.1339 37.4496 83.5839 37.5025 83.6431C37.6886 83.8562 37.9829 83.9356 38.2495 83.8459C38.5161 83.7563 38.7042 83.5143 38.7269 83.2307C38.7284 83.2101 38.9077 81.1738 40.4304 79.594C42.8012 77.1339 46.2263 77.5234 47.8288 78.3463C48.8351 78.8631 49.5031 79.616 49.9471 80.3861C50.205 80.8328 50.3863 81.2845 50.5153 81.6999C50.8056 82.637 50.8249 83.386 50.8259 83.4516C50.8283 83.7083 50.9685 83.9434 51.1915 84.0663C51.4144 84.1894 51.6858 84.1805 51.901 84.0439C53.9966 82.7095 56.1454 82.8545 57.6359 83.4795C57.9215 83.599 58.1832 83.7362 58.4155 83.8842C58.6709 84.0468 58.9061 84.2423 59.1236 84.4573C60.445 85.7617 61.0761 87.8843 61.0161 89.1423C61.0097 89.2784 60.9991 89.4107 60.985 89.54C60.92 90.146 60.7757 90.6735 60.5783 91.1336C59.5114 93.6249 56.8851 94.1168 56.7493 94.1403C56.472 94.1877 56.2496 94.3985 56.1846 94.6746C56.1192 94.9519 56.2249 95.2425 56.4527 95.411C56.4639 95.4193 57.2564 96.0135 58.1484 97.0192C58.4663 97.3778 58.796 97.7893 59.1085 98.2452C59.1498 98.3055 59.1919 98.3648 59.2327 98.427C60.1498 99.8236 60.6205 101.212 60.6515 102.581C60.6626 103.072 60.6177 103.56 60.5143 104.045ZM111.029 108.647C110.11 109.55 108.989 109.898 107.16 109.847C105.224 109.793 102.789 108.669 99.7062 107.247C94.978 105.066 88.5025 102.078 79.9692 101.457C72.8776 100.939 66.5463 101.581 62.0398 102.334C61.9476 100.66 61.3215 99.1574 60.5502 97.915C79.7046 93.6945 97.3596 95.9301 111.059 104.399C111.696 104.826 111.89 105.481 111.938 105.959C112.033 106.905 111.651 108.036 111.029 108.647ZM122.5 102.313C122.197 103.451 121.474 104.411 120.612 104.818C118.938 105.61 116.118 105.978 113.678 104.407C113.567 104.335 113.43 104.244 113.267 104.136C112.79 103.819 112.307 103.51 111.82 103.209C111.809 103.202 111.8 103.193 111.789 103.186C111.78 103.18 111.77 103.177 111.761 103.172C97.614 94.4391 79.39 92.1911 59.668 96.6626C59.1822 96.0497 58.6966 95.5384 58.2913 95.1479C59.8071 94.5141 61.5988 93.1376 62.21 90.6608C67.496 89.1932 76.0424 87.4293 86.7444 87.3617C97.1477 87.294 105.226 89.3358 110.171 91.0586C116.819 93.3747 120.4 95.9714 121.446 97.4909C122.533 99.0707 122.907 100.783 122.5 102.313ZM127.141 94.3338C126.29 95.6279 123.764 96.2212 120.985 95.0043C118.775 93.1782 115.06 91.2629 110.627 89.7183C105.579 87.9592 97.3367 85.8784 86.7346 85.944C76.2901 86.0101 67.8425 87.6782 62.4174 89.1393C62.4596 87.7927 61.8929 85.5981 60.5792 83.9748C66.4615 82.0839 75.7602 79.7845 87.0415 79.3917C108.008 78.6603 122.683 84.9197 126.405 89.5973C127.854 91.4172 127.802 93.3281 127.141 94.3338Z" fill="#231F20"/>
<path d="M36.761 91.6961C37.3732 90.9785 37.6722 90.0623 37.603 89.1174C37.5336 88.1725 37.1042 87.3109 36.394 86.6922C35.6834 86.0735 34.7769 85.7717 33.8424 85.8413C31.9117 85.9858 30.4575 87.691 30.601 89.6416C30.6703 90.5865 31.0997 91.4477 31.8099 92.0669C32.4531 92.6267 33.2563 92.9275 34.0964 92.9275C34.1846 92.9275 34.2728 92.9241 34.3615 92.9178C35.2966 92.8478 36.1487 92.4137 36.761 91.6961ZM35.7164 90.1079H35.712C35.3824 90.1079 35.1134 89.839 35.1109 89.5049C35.1085 89.3858 35.0634 89.0175 34.8875 88.7941C34.6102 88.4424 34.2975 88.3899 34.2845 88.388C33.9543 88.3537 33.7212 88.056 33.7551 87.7223C33.789 87.3887 34.0915 87.1468 34.4216 87.181C34.5031 87.1894 35.2355 87.2859 35.8278 88.0372C36.2932 88.6282 36.3126 89.4084 36.3131 89.4955C36.3155 89.8311 36.0484 90.1055 35.7164 90.1079Z" fill="#FFB1B5"/>
<path d="M42.6222 87.9853C43.2654 88.5451 44.0686 88.8459 44.9087 88.8459C44.997 88.8459 45.0851 88.8425 45.1739 88.8362C46.1089 88.7661 46.9615 88.3321 47.5737 87.6145C48.1859 86.8968 48.4851 85.9807 48.4157 85.0358C48.3732 84.4563 48.1942 83.9086 47.899 83.4286C47.7128 83.1259 47.4816 82.8501 47.2067 82.6105C47.1142 82.5297 47.0178 82.4553 46.9188 82.3852C46.2591 81.9198 45.4675 81.6984 44.6552 81.7597C42.7245 81.9042 41.2703 83.6094 41.4137 85.56C41.4831 86.5049 41.912 87.3661 42.6222 87.9853ZM44.6557 83.7362C44.7032 83.4041 45.009 83.1734 45.3366 83.2224C45.4268 83.2356 45.5383 83.2635 45.6585 83.3066C46.0274 83.4379 46.487 83.7255 46.7691 84.2446C46.7884 84.2805 46.8108 84.3123 46.8288 84.3501C47.2282 85.2132 46.9469 85.9694 46.9141 86.0533C46.8196 86.2894 46.5945 86.4328 46.3567 86.4328C46.2814 86.4328 46.2053 86.4187 46.1316 86.3884C45.8239 86.2624 45.6755 85.9088 45.7996 85.5977C45.8012 85.5937 45.8933 85.3258 45.7899 84.9956C45.7764 84.9526 45.7608 84.9089 45.74 84.8643C45.5709 84.4984 45.1685 84.4244 45.1647 84.4239C44.9479 84.3922 44.7773 84.2467 44.6983 84.0561C44.6576 83.9582 44.6392 83.8494 44.6557 83.7362Z" fill="#FFB1B5"/>
<path d="M28.1417 95.1543C27.3171 95.216 26.5658 95.5985 26.0258 96.2315C25.4858 96.8644 25.2221 97.6722 25.2832 98.5054C25.3443 99.3387 25.7229 100.098 26.3491 100.644C26.9163 101.137 27.6245 101.402 28.3652 101.402C28.4427 101.402 28.5207 101.4 28.5988 101.394C29.4233 101.332 30.1747 100.949 30.7147 100.316C31.2547 99.6835 31.5184 98.8758 31.4568 98.0425C31.3308 96.322 29.8416 95.0275 28.1417 95.1543ZM30.2702 98.8458C30.2391 99.0232 30.1344 99.1677 29.9943 99.2558C29.9013 99.3141 29.7932 99.3484 29.6788 99.3484C29.6444 99.3484 29.6095 99.3455 29.5741 99.3392C29.2474 99.2814 29.0288 98.9663 29.086 98.6361C29.086 98.6317 29.131 98.2757 28.8717 97.9528C28.6817 97.7162 28.3923 97.6908 28.3797 97.6898C28.0481 97.676 27.7951 97.3933 27.8087 97.0584C27.8222 96.7233 28.1102 96.4651 28.4388 96.4764C28.5232 96.4799 29.2765 96.5293 29.8048 97.1867C30.0898 97.5418 30.212 97.9117 30.2605 98.2134C30.3143 98.548 30.2784 98.7978 30.2702 98.8458Z" fill="#FFB1B5"/>
<path d="M57.4333 90.6745C57.6845 90.1803 57.8114 89.6145 57.7684 89.0213C57.7073 88.1881 57.3287 87.4288 56.7023 86.883C56.1416 86.3942 55.4406 86.1316 54.7092 86.1263C54.6239 86.1257 54.5386 86.1263 54.4527 86.1327C53.9714 86.1689 53.5162 86.3174 53.1119 86.5578C52.824 86.7293 52.5613 86.9462 52.3369 87.2098C51.7969 87.8427 51.5332 88.65 51.5947 89.4833C51.6558 90.3165 52.0344 91.0758 52.6607 91.6214C53.2278 92.1152 53.936 92.3802 54.6771 92.3802C54.7548 92.3802 54.8327 92.3774 54.9109 92.3715C55.0722 92.3593 55.2288 92.3313 55.382 92.2949C56.2855 92.0829 57.0255 91.4769 57.4333 90.6745ZM56.3674 90.0995C56.2831 90.3532 56.049 90.5128 55.7979 90.5128C55.7344 90.5128 55.6695 90.5027 55.6059 90.4811C55.2914 90.3737 55.1222 90.0294 55.2283 89.7115C55.269 89.5895 55.3238 89.3412 55.2328 89.0536C55.1735 88.866 55.0455 88.7152 54.8521 88.6059C54.5628 88.4419 54.46 88.0715 54.6225 87.779C54.7848 87.4866 55.1513 87.3828 55.4406 87.5468C55.7616 87.729 56.1846 88.0744 56.3771 88.6843C56.5627 89.2711 56.4746 89.7776 56.3674 90.0995Z" fill="#FFB1B5"/>
<path d="M52.5135 98.5685C52.5135 98.5685 52.513 98.5671 52.5125 98.5666C51.7955 96.7669 50.5057 95.451 48.7829 94.7614C46.0635 93.6729 42.8701 94.3264 40.7881 95.3016C35.6902 97.6892 34.9636 102.038 35.7188 104.378C36.252 106.03 37.4809 107.003 38.953 107.003C39.1813 107.003 39.4159 106.979 39.6544 106.931C41.0465 106.651 41.9525 106.042 42.8289 105.453C44.0548 104.629 45.3219 103.777 48.2013 103.575C50.2259 103.433 51.605 102.821 52.3002 101.756C52.6413 101.232 52.8019 100.605 52.779 99.923C52.7651 99.4979 52.6802 99.0515 52.5227 98.5955C52.5197 98.5866 52.5168 98.5774 52.5135 98.5685ZM48.3307 98.6179C47.2196 97.4766 45.4921 97.4193 45.4746 97.4188C45.1435 97.4105 44.8809 97.1328 44.888 96.7982C44.8953 96.4636 45.1615 96.2006 45.4999 96.2044C45.5899 96.2065 47.7266 96.2657 49.1872 97.7661C49.4198 98.0053 49.417 98.3897 49.1803 98.6249C49.0636 98.7415 48.9109 98.7993 48.7592 98.7993C48.6074 98.7993 48.4484 98.7385 48.3307 98.6179ZM49.9245 101.082C49.8954 101.087 49.8664 101.089 49.8372 101.089C49.5435 101.089 49.2866 100.871 49.2434 100.569C49.2245 100.436 49.1997 100.307 49.1702 100.183C49.0922 99.8569 49.2904 99.5292 49.6132 99.4502C49.9356 99.3715 50.2609 99.5717 50.3385 99.8981C50.3768 100.058 50.4082 100.225 50.433 100.394C50.4805 100.726 50.2531 101.034 49.9245 101.082Z" fill="#FFB1B5"/>
<path d="M111.059 104.401C97.3599 95.9329 79.7044 93.6971 60.5505 97.9178C61.3218 99.1599 61.948 100.662 62.0401 102.337C66.5462 101.583 72.8774 100.942 79.9695 101.459C88.5029 102.081 94.9783 105.069 99.7064 107.25C102.789 108.672 105.224 109.796 107.16 109.849C108.99 109.9 110.11 109.552 111.029 108.649C111.651 108.038 112.034 106.909 111.939 105.963C111.891 105.484 111.696 104.829 111.059 104.401Z" fill="#9DD9AF"/>
<path d="M87.0406 79.3926C75.7599 79.7855 66.4607 82.0848 60.5784 83.9758C61.8916 85.5991 62.4587 87.7936 62.4166 89.1403C67.8417 87.6796 76.2892 86.011 86.7338 85.9449C97.3359 85.8794 105.578 87.9606 110.626 89.7193C115.06 91.2638 118.774 93.1787 120.984 95.0052C123.763 96.2222 126.29 95.6289 127.14 94.3348C127.801 93.3291 127.852 91.4177 126.404 89.5978C122.681 84.9202 108.007 78.6612 87.0406 79.3926Z" fill="#9DDEF7"/>
<path d="M59.1627 82.6855C59.2514 82.7418 59.3339 82.8055 59.4187 82.8668C65.3518 80.9019 75.0911 78.39 86.9923 77.9755C99.2158 77.5499 108.279 79.4583 113.73 81.1341C115.743 81.7528 117.63 82.4563 119.341 83.2155C119.357 83.2209 119.372 83.2234 119.387 83.2297C119.414 83.2415 122.192 84.3961 123.998 83.6941C125.455 83.1278 126.042 82.3132 126.162 80.6884C126.243 79.5852 125.595 78.3322 124.287 77.0649C116.942 69.9517 99.0346 68.4439 85.5041 70.0526C71.4032 71.7294 61.0332 75.9735 54.8165 79.2384C53.7003 79.8247 52.6764 80.4008 51.7414 80.9549C51.9193 81.4569 52.0342 81.9282 52.1049 82.3211C54.8452 81.042 57.5592 81.6637 59.1627 82.6855Z" fill="#A1FCE7"/>
<path d="M110.17 91.0591C105.225 89.3363 97.1466 87.2947 86.7432 87.3621C76.0411 87.4298 67.4949 89.1938 62.2087 90.6613C61.5975 93.138 59.806 94.5146 58.2902 95.1485C58.6955 95.5389 59.1811 96.0504 59.6669 96.663C79.3883 92.1917 97.6129 94.4396 111.76 103.172C111.769 103.178 111.779 103.181 111.787 103.187C111.799 103.194 111.808 103.202 111.819 103.21C112.306 103.511 112.788 103.82 113.266 104.136C113.429 104.245 113.566 104.336 113.677 104.407C116.117 105.978 118.937 105.611 120.611 104.819C121.473 104.411 122.196 103.451 122.499 102.313C122.905 100.783 122.531 99.0708 121.443 97.4915C120.397 95.9714 116.818 93.3751 110.17 91.0591Z" fill="#FFE66A"/>
<path d="M59.1083 98.2457C58.7956 97.7896 58.4661 97.3781 58.148 97.0195C57.2562 96.0143 56.4636 95.4197 56.4525 95.4113C56.2246 95.2428 56.119 94.9528 56.1844 94.6751C56.2498 94.3983 56.4719 94.1882 56.7491 94.1407C56.8844 94.1172 59.5106 93.6254 60.5781 91.1339C60.7748 90.674 60.9193 90.1463 60.9848 89.5404C60.9987 89.4117 61.0089 89.2789 61.0157 89.1426C61.0759 87.8847 60.4447 85.7622 59.1234 84.4577C58.9052 84.2425 58.6707 84.0472 58.4151 83.8846C58.183 83.7366 57.9213 83.5994 57.6357 83.4799C56.1452 82.8548 53.9962 82.7094 51.9008 84.0442C51.6856 84.1809 51.4145 84.1897 51.1911 84.0668C50.9681 83.9438 50.8281 83.7087 50.8257 83.452C50.8247 83.3863 50.8052 82.6378 50.5149 81.7003C50.3864 81.2849 50.2048 80.8332 49.9469 80.3865C49.5029 79.6164 48.8349 78.8635 47.8286 78.3467C46.2261 77.5237 42.8008 77.1343 40.43 79.5944C38.9074 81.1741 38.7281 83.211 38.7267 83.2311C38.7038 83.5142 38.5162 83.7562 38.2491 83.8463C37.9827 83.9359 37.6884 83.8561 37.5023 83.6435C37.4494 83.5847 36.1275 82.1343 33.7882 82.1343C30.1144 82.1343 28.2273 84.5806 27.6912 86.0262C26.5564 89.0883 28.063 91.535 28.078 91.5596C28.2118 91.7721 28.2239 92.0407 28.11 92.2644C27.9956 92.4883 27.7726 92.6343 27.5234 92.6476C27.4095 92.6544 24.6625 92.8474 23.2335 95.3638C21.9645 97.5981 22.106 101.068 24.5467 102.779C26.3581 104.049 29.1464 103.629 30.2617 103.389C30.3102 103.379 30.3591 103.373 30.4076 103.373C30.5816 103.373 30.7513 103.439 30.8822 103.56C31.0494 103.715 31.1318 103.943 31.1032 104.171C31.0581 104.538 30.0732 113.192 36.651 114.122C40.6666 114.69 42.7916 112.738 44.4984 111.17C45.1621 110.56 45.7887 109.984 46.45 109.625C47.2802 109.175 48.654 109.163 50.3928 109.147C53.9808 109.114 58.4461 109.072 60.0681 105.415C60.2692 104.962 60.4161 104.505 60.5141 104.046C60.6173 103.56 60.6624 103.072 60.6513 102.58C60.6202 101.213 60.149 99.824 59.2324 98.4269C59.1917 98.3648 59.1495 98.3058 59.1083 98.2457ZM52.3361 87.2101C52.5605 86.9467 52.8233 86.7296 53.1112 86.5581C53.5154 86.3172 53.9702 86.1687 54.452 86.133C54.5378 86.1266 54.623 86.1257 54.7083 86.1266C55.4403 86.132 56.1407 86.3945 56.7016 86.8835C57.3278 87.4291 57.7064 88.1884 57.7675 89.0216C57.8112 89.6149 57.6837 90.1806 57.4326 90.6749C57.025 91.4772 56.2843 92.0842 55.3802 92.2963C55.227 92.3321 55.0704 92.3605 54.909 92.3727C54.8311 92.3786 54.7529 92.3816 54.6754 92.3816C53.9343 92.3816 53.226 92.1166 52.6589 91.6229C52.0326 91.077 51.654 90.3178 51.593 89.4845C51.5319 88.6513 51.7966 87.8431 52.3361 87.2101ZM44.6545 81.759C45.4668 81.6978 46.2585 81.9192 46.9181 82.3846C47.0171 82.4546 47.1135 82.5291 47.2061 82.6099C47.4805 82.849 47.7122 83.1252 47.8983 83.428C48.1935 83.9081 48.373 84.4557 48.415 85.0351C48.4844 85.9802 48.1852 86.8962 47.5731 87.6138C46.9609 88.3315 46.1087 88.7655 45.1732 88.8355C45.0844 88.8423 44.9963 88.8454 44.908 88.8454C44.0679 88.8454 43.2642 88.5446 42.6215 87.9846C41.9113 87.3659 41.4819 86.5047 41.4125 85.5594C41.2696 83.6082 42.7238 81.9035 44.6545 81.759ZM30.7149 100.317C30.1749 100.95 29.4236 101.333 28.5991 101.394C28.521 101.4 28.443 101.403 28.3654 101.403C27.6248 101.403 26.9161 101.138 26.3494 100.644C25.7231 100.099 25.3446 99.3395 25.2835 98.5063C25.2224 97.673 25.4861 96.8658 26.0261 96.2323C26.5661 95.5995 27.3174 95.2169 28.142 95.1552C29.8419 95.0283 31.3315 96.3235 31.4576 98.0433C31.5186 98.8766 31.2545 99.684 30.7149 100.317ZM34.0955 92.9282C33.2554 92.9282 32.4517 92.6275 31.809 92.0675C31.0989 91.449 30.6694 90.5878 30.6001 89.6422C30.4571 87.6912 31.9113 85.9865 33.8415 85.842C34.7761 85.772 35.683 86.0742 36.3931 86.6929C37.1032 87.3116 37.5328 88.1733 37.602 89.1182C37.6714 90.0631 37.3724 90.9791 36.7601 91.6967C36.1479 92.4143 35.2957 92.8484 34.3602 92.9184C34.2714 92.9254 34.1837 92.9282 34.0955 92.9282ZM52.3002 101.757C51.6051 102.822 50.226 103.434 48.2013 103.576C45.322 103.778 44.0544 104.63 42.8289 105.454C41.9526 106.044 41.0466 106.653 39.6544 106.933C39.4159 106.981 39.1813 107.004 38.953 107.004C37.4808 107.004 36.2521 106.031 35.7189 104.38C34.9636 102.04 35.6903 97.6906 40.7883 95.3032C42.8702 94.3278 46.0636 93.6743 48.783 94.7627C50.5062 95.4524 51.7957 96.7683 52.5125 98.568C52.5125 98.569 52.513 98.5695 52.5135 98.5699C52.5168 98.5788 52.5203 98.5876 52.5232 98.5965C52.6807 99.0524 52.7655 99.4986 52.7796 99.9239C52.8023 100.606 52.6415 101.234 52.3002 101.757Z" fill="white"/>
<path d="M29.8053 97.1871C29.2774 96.5297 28.5237 96.4801 28.4393 96.4768C28.1107 96.465 27.8227 96.7231 27.8092 97.0586C27.7956 97.3937 28.0486 97.6764 28.3802 97.6901C28.3923 97.6912 28.6822 97.7166 28.8722 97.9532C29.1315 98.2765 29.0869 98.6321 29.0864 98.6365C29.0292 98.9667 29.2479 99.2818 29.5746 99.3394C29.6095 99.3459 29.6449 99.3488 29.6793 99.3488C29.7937 99.3488 29.9018 99.3145 29.9948 99.2562C30.1349 99.168 30.2396 99.0235 30.2707 98.8462C30.2789 98.7982 30.3152 98.5484 30.2614 98.2138C30.213 97.9125 30.0903 97.5422 29.8053 97.1871Z" fill="white"/>
<path d="M34.4212 87.1809C34.0911 87.1461 33.7886 87.388 33.7547 87.7221C33.7207 88.0558 33.9539 88.3531 34.284 88.3878C34.2971 88.3899 34.6102 88.4423 34.887 88.7939C35.063 89.0173 35.1081 89.3858 35.1105 89.5047C35.1129 89.8388 35.3814 90.1077 35.7116 90.1077H35.7159C36.048 90.1053 36.315 89.8315 36.3126 89.496C36.3121 89.4088 36.2928 88.6284 35.8274 88.0377C35.2351 87.2862 34.5026 87.1892 34.4212 87.1809Z" fill="white"/>
<path d="M45.1638 84.4217C45.1678 84.4222 45.5701 84.4966 45.7393 84.8621C45.7601 84.9067 45.7757 84.9502 45.7892 84.9934C45.8924 85.3235 45.8003 85.5914 45.7989 85.5954C45.6744 85.9065 45.8232 86.2602 46.131 86.3859C46.2046 86.4164 46.2812 86.4306 46.3558 86.4306C46.5934 86.4306 46.8187 86.287 46.9134 86.051C46.9467 85.9677 47.228 85.2108 46.828 84.3477C46.8105 84.3096 46.7878 84.2781 46.7684 84.2424C46.4862 83.7232 46.0268 83.4356 45.6579 83.3043C45.5377 83.2617 45.4267 83.2333 45.336 83.2201C45.0088 83.1716 44.7025 83.4018 44.6549 83.7339C44.639 83.8471 44.6565 83.9564 44.6971 84.0544C44.7762 84.2443 44.9472 84.3899 45.1638 84.4217Z" fill="white"/>
<path d="M54.8519 88.6061C55.0454 88.7158 55.1734 88.8662 55.2326 89.0537C55.3231 89.3413 55.269 89.5892 55.2281 89.7117C55.1221 90.0296 55.2912 90.3739 55.6058 90.4812C55.6693 90.5027 55.7343 90.513 55.7978 90.513C56.0488 90.513 56.2824 90.3529 56.3672 90.0996C56.4744 89.7782 56.5631 89.2718 56.3774 88.6844C56.1845 88.0746 55.7619 87.7292 55.4409 87.547C55.1516 87.3828 54.7851 87.4867 54.6228 87.7792C54.4603 88.0715 54.5624 88.4419 54.8519 88.6061Z" fill="white"/>
<path d="M50.3379 99.9003C50.2597 99.5739 49.9345 99.3737 49.6126 99.4524C49.2904 99.5313 49.0916 99.8596 49.1697 100.185C49.1992 100.309 49.2239 100.439 49.2427 100.571C49.2859 100.873 49.5429 101.091 49.8367 101.091C49.8653 101.091 49.8943 101.089 49.9239 101.085C50.2526 101.037 50.4798 100.729 50.4324 100.396C50.4081 100.227 50.3766 100.06 50.3379 99.9003Z" fill="white"/>
<path d="M49.1872 97.7682C47.7262 96.2678 45.59 96.2081 45.4998 96.2065C45.1615 96.2027 44.8953 96.4652 44.888 96.8003C44.8804 97.1349 45.1431 97.4126 45.4747 97.4209C45.4921 97.4214 47.2196 97.4787 48.3306 98.6202C48.4484 98.741 48.6036 98.8014 48.7592 98.8014C48.9149 98.8014 49.0637 98.7436 49.1804 98.627C49.417 98.3918 49.4199 98.0074 49.1872 97.7682Z" fill="white"/>
</g>
</g>
</g>
</g>
<g clip-path="url(#clip3_803_83)">
<g clip-path="url(#clip4_803_83)">
<g clip-path="url(#clip5_803_83)">
<path d="M23.8666 53.4669C23.309 53.4669 22.9083 53.2926 22.6643 52.9442C22.4204 52.5957 22.3507 52.1078 22.4552 51.4806L24.8597 36.2958C24.9468 35.7383 25.1472 35.3201 25.4608 35.0413C25.7745 34.7625 26.2101 34.6231 26.7676 34.6231C27.3252 34.6231 27.7172 34.7974 27.9437 35.1459C28.1877 35.4943 28.2573 35.9822 28.1528 36.6094L27.2119 42.5161H36.6992L37.6923 36.2958C37.7794 35.7383 37.971 35.3201 38.2673 35.0413C38.581 34.7625 39.0165 34.6231 39.5741 34.6231C40.1316 34.6231 40.5323 34.7974 40.7763 35.1459C41.0202 35.4769 41.09 35.9648 40.9854 36.6094L38.581 51.7681C38.4937 52.3256 38.2935 52.7525 37.9798 53.0487C37.6835 53.3275 37.2567 53.4669 36.6992 53.4669C36.1242 53.4669 35.7147 53.2926 35.4708 52.9442C35.2443 52.5957 35.1833 52.1078 35.2879 51.4806L36.2549 45.3126H26.7676L25.7483 51.7681C25.6612 52.3256 25.4608 52.7525 25.1472 53.0487C24.851 53.3275 24.4241 53.4669 23.8666 53.4669ZM43.9419 58.1713C43.5237 58.1713 43.2013 58.0754 42.9749 57.8838C42.7483 57.6922 42.6263 57.4395 42.609 57.1259C42.5915 56.8297 42.6874 56.5073 42.8965 56.1588L45.3794 52.0817L45.1703 53.4407L42.1647 42.5161C42.0427 42.0805 42.0252 41.6972 42.1124 41.3661C42.1995 41.0176 42.3738 40.7476 42.6351 40.5559C42.9138 40.3643 43.2536 40.2684 43.6544 40.2684C44.1074 40.2684 44.4471 40.3817 44.6737 40.6082C44.9176 40.8173 45.1005 41.2006 45.2225 41.7581L47.3134 50.409H46.5032L51.6258 41.4445C51.8696 41.0264 52.1223 40.7302 52.3837 40.5559C52.645 40.3643 52.9848 40.2684 53.403 40.2684C53.8211 40.2684 54.1434 40.3643 54.37 40.5559C54.6139 40.7476 54.7446 41.0002 54.762 41.3138C54.7968 41.61 54.7098 41.9411 54.5007 42.307L45.7191 56.9952C45.4751 57.4133 45.2225 57.7095 44.9612 57.8838C44.6998 58.0754 44.3601 58.1713 43.9419 58.1713ZM55.3382 58.1713C54.833 58.1713 54.4584 58.0058 54.2144 57.6747C53.9705 57.3436 53.8921 56.882 53.9792 56.2895L56.253 41.9411C56.3402 41.3835 56.5405 40.9654 56.8541 40.6866C57.1677 40.4078 57.5947 40.2684 58.1347 40.2684C58.6401 40.2684 58.9972 40.4339 59.2063 40.765C59.4329 41.096 59.5026 41.5665 59.4154 42.1763L59.1802 43.6399L59.1279 42.8558C59.6158 42.0021 60.2431 41.3487 61.0097 40.8957C61.7937 40.4427 62.6823 40.2161 63.6755 40.2161C64.6513 40.2161 65.4963 40.4427 66.2106 40.8957C66.9424 41.3313 67.5087 41.9672 67.9094 42.8036C68.3103 43.6225 68.5106 44.5982 68.5106 45.7308C68.5106 47.1769 68.2492 48.4925 67.7265 49.6772C67.2213 50.8447 66.4895 51.7767 65.5311 52.4737C64.5729 53.1707 63.4229 53.5191 62.0812 53.5191C61.1055 53.5191 60.2344 53.2839 59.4677 52.8135C58.7185 52.343 58.1958 51.6461 57.8995 50.7226H58.1347L57.1939 56.6293C57.1068 57.1695 56.9152 57.5615 56.6189 57.8054C56.3227 58.0493 55.8959 58.1713 55.3382 58.1713ZM61.4801 51.0363C62.2816 51.0363 62.9525 50.8097 63.4925 50.3567C64.0502 49.9038 64.477 49.2852 64.7732 48.5011C65.0695 47.7171 65.2175 46.8459 65.2175 45.8876C65.2175 44.8596 64.9649 44.0755 64.4596 43.5354C63.9718 42.9778 63.2923 42.699 62.421 42.699C61.6369 42.699 60.9662 42.9255 60.4085 43.3785C59.851 43.8316 59.4242 44.4501 59.1279 45.2342C58.8317 46.0008 58.6836 46.872 58.6836 47.8477C58.6836 48.8757 58.9276 49.6686 59.4154 50.2261C59.9208 50.7662 60.609 51.0363 61.4801 51.0363ZM74.0067 53.5191C73.1008 53.5191 72.3254 53.3275 71.6807 52.9442C71.0361 52.5608 70.5743 51.9685 70.2955 51.1669C70.0341 50.3654 69.9993 49.3461 70.1909 48.1091L71.2102 41.7843C71.2974 41.2616 71.4891 40.8782 71.7852 40.6343C72.0815 40.3904 72.4822 40.2684 72.9874 40.2684C73.5276 40.2684 73.9197 40.4252 74.1635 40.7389C74.4249 41.0351 74.5121 41.4794 74.4249 42.0718L73.484 48.083C73.3447 49.0413 73.4144 49.7556 73.6931 50.2261C73.9894 50.6965 74.5294 50.9317 75.3135 50.9317C76.2893 50.9317 77.0821 50.6094 77.6918 49.9647C78.3018 49.32 78.6938 48.4402 78.868 47.325L79.7304 41.7843C79.8176 41.2616 80.0092 40.8782 80.3054 40.6343C80.6017 40.3904 81.0024 40.2684 81.5076 40.2684C82.0653 40.2684 82.466 40.4252 82.7099 40.7389C82.9539 41.0525 83.0323 41.5055 82.9451 42.0979L81.4031 51.9249C81.2463 52.9528 80.654 53.4669 79.6259 53.4669C79.1206 53.4669 78.7461 53.3275 78.502 53.0487C78.2582 52.7699 78.1711 52.343 78.2407 51.7681L78.502 49.8863L78.685 50.592C78.232 51.5503 77.5961 52.2821 76.7771 52.7874C75.9757 53.2753 75.0522 53.5191 74.0067 53.5191ZM85.5009 53.4669C84.9782 53.4669 84.5948 53.3101 84.3509 52.9964C84.1244 52.6653 84.0546 52.2037 84.1418 51.6113L85.6838 41.8366C85.7709 41.3138 85.9713 40.9218 86.2849 40.6605C86.5986 40.3991 87.0079 40.2684 87.5133 40.2684C88.0186 40.2684 88.3845 40.4252 88.611 40.7389C88.8549 41.0525 88.9333 41.5055 88.8462 42.0979L88.611 43.5615H88.3497C88.6981 42.5335 89.2731 41.7407 90.0746 41.1832C90.876 40.6082 91.8257 40.2858 92.9234 40.2161C93.4111 40.1813 93.7336 40.251 93.8904 40.4252C94.0645 40.5995 94.1517 40.887 94.1517 41.2877C94.1517 41.8627 94.0211 42.2896 93.7597 42.5683C93.4984 42.8297 93.0889 42.9865 92.5313 43.0388L91.7734 43.1172C90.606 43.2392 89.7696 43.5963 89.2644 44.1888C88.759 44.7637 88.4193 45.5739 88.2451 46.6194L87.4088 51.8987C87.339 52.4215 87.1386 52.8135 86.8077 53.0748C86.494 53.3362 86.0584 53.4669 85.5009 53.4669ZM95.0478 53.4669C94.5251 53.4669 94.1417 53.3101 93.8978 52.9964C93.6713 52.6653 93.6015 52.2037 93.6887 51.6113L95.2307 41.8366C95.3178 41.3138 95.5182 40.9218 95.8318 40.6605C96.1455 40.3991 96.5548 40.2684 97.0602 40.2684C97.5655 40.2684 97.9314 40.4252 98.1579 40.7389C98.4018 41.0525 98.4802 41.5055 98.3931 42.0979L98.1579 43.5615H97.8966C98.245 42.5335 98.82 41.7407 99.6215 41.1832C100.423 40.6082 101.373 40.2858 102.47 40.2161C102.958 40.1813 103.28 40.251 103.437 40.4252C103.611 40.5995 103.699 40.887 103.699 41.2877C103.699 41.8627 103.568 42.2896 103.307 42.5683C103.045 42.8297 102.636 42.9865 102.078 43.0388L101.32 43.1172C100.153 43.2392 99.3165 43.5963 98.8113 44.1888C98.3059 44.7637 97.9662 45.5739 97.792 46.6194L96.9557 51.8987C96.8859 52.4215 96.6855 52.8135 96.3546 53.0748C96.0409 53.3362 95.6053 53.4669 95.0478 53.4669ZM105.091 53.4669C104.516 53.4669 104.098 53.3014 103.837 52.9703C103.575 52.6219 103.488 52.1514 103.575 51.559L105.954 36.4526C106.041 35.9125 106.241 35.5117 106.555 35.2504C106.886 34.9716 107.321 34.8322 107.862 34.8322H116.8C117.253 34.8322 117.602 34.9281 117.845 35.1197C118.089 35.294 118.211 35.5553 118.211 35.9038C118.211 36.3916 118.072 36.7837 117.793 37.0799C117.532 37.3587 117.148 37.4981 116.643 37.4981H109.168L108.332 42.699H114.997C115.45 42.699 115.798 42.7949 116.042 42.9865C116.286 43.1608 116.408 43.4221 116.408 43.7706C116.408 44.2585 116.269 44.6505 115.99 44.9467C115.728 45.2255 115.345 45.3649 114.84 45.3649H107.914L106.895 51.8203C106.72 52.918 106.119 53.4669 105.091 53.4669ZM119.603 53.4669C119.098 53.4669 118.723 53.3014 118.479 52.9703C118.253 52.6219 118.183 52.1514 118.27 51.559L119.812 41.8888C119.899 41.3487 120.1 40.9479 120.413 40.6866C120.727 40.4078 121.154 40.2684 121.694 40.2684C122.199 40.2684 122.565 40.4339 122.791 40.765C123.035 41.096 123.114 41.5665 123.027 42.1763L121.485 51.8465C121.398 52.3867 121.197 52.796 120.884 53.0748C120.587 53.3362 120.16 53.4669 119.603 53.4669ZM122.112 37.8639C121.52 37.8639 121.075 37.7246 120.779 37.4458C120.5 37.1496 120.387 36.7401 120.439 36.2174C120.509 35.625 120.735 35.1807 121.119 34.8845C121.502 34.5709 122.016 34.4141 122.661 34.4141C123.253 34.4141 123.698 34.5622 123.994 34.8584C124.29 35.1371 124.403 35.5379 124.333 36.0606C124.264 36.653 124.037 37.106 123.654 37.4196C123.288 37.7158 122.774 37.8639 122.112 37.8639Z" fill="#A1FCE7"/>
</g>
</g>
</g>
<defs>
<clipPath id="clip0_803_83">
<rect width="108" height="47.6415" fill="white" transform="translate(21 68)"/>
</clipPath>
<clipPath id="clip1_803_83">
<rect width="108" height="47.6415" fill="white" transform="translate(21 68)"/>
</clipPath>
<clipPath id="clip2_803_83">
<rect width="107.987" height="47.6415" fill="white" transform="translate(21.0063 68)"/>
</clipPath>
<clipPath id="clip3_803_83">
<rect width="103.167" height="24.76" fill="white" transform="translate(21 34)"/>
</clipPath>
<clipPath id="clip4_803_83">
<rect width="103.167" height="24.76" fill="white" transform="translate(21 34)"/>
</clipPath>
<clipPath id="clip5_803_83">
<rect width="103.167" height="24.76" fill="white" transform="translate(21 34)"/>
</clipPath>
</defs>
</svg>
