<svg width="294" height="152" viewBox="0 0 294 152" fill="none" xmlns="http://www.w3.org/2000/svg">
<g clip-path="url(#clip0_340_22)">
<rect width="294" height="152" fill="black"/>
<path d="M204.98 114.594C207.63 115.591 210.11 116.278 212.393 116.341L212.394 116.341C216.471 116.455 219.289 115.676 221.614 113.392C223.278 111.758 224.209 108.921 223.968 106.527C223.844 105.29 223.322 103.397 221.463 102.151L221.387 102.1L221.36 102.087C192.183 84.0728 154.692 79.3837 114.186 88.3094L112.117 88.7654L113.234 90.5654C114.766 93.0331 115.965 95.9468 116.141 99.1409L116.233 100.814L117.886 100.538C127.269 98.9691 140.447 97.6354 155.199 98.7113L155.199 98.7113C172.832 99.9958 186.221 106.164 196.147 110.743L196.147 110.743L196.198 110.767C199.402 112.245 202.336 113.598 204.98 114.594Z" fill="#9DD9AF" stroke="black" stroke-width="3"/>
<path d="M118.819 72.7809C130.119 69.7383 147.738 66.2571 169.529 66.1191C191.602 65.9825 208.747 70.316 219.224 73.9655C228.455 77.1816 236.073 81.1328 240.522 84.811L240.684 84.9448L240.877 85.029C244.027 86.4082 247.096 86.7894 249.681 86.4131C252.23 86.0421 254.462 84.9009 255.665 83.07C257.485 80.3019 257.395 75.5753 254.04 71.3597C251.912 68.6862 248.329 65.9072 243.565 63.2691C238.779 60.6188 232.716 58.0634 225.538 55.8763C211.18 51.5016 192.294 48.5789 170.111 49.3527L166.684 49.4722L166.712 49.5004C144.372 50.649 125.967 55.2418 114.108 59.0538L112.025 59.7236L113.401 61.4252C115.923 64.5424 117.008 68.7973 116.93 71.2856L116.867 73.3067L118.819 72.7809Z" fill="#9DDEF7" stroke="black" stroke-width="3"/>
<path d="M111.252 59.3688L111.874 59.8175L112.601 59.5765C124.969 55.4807 145.287 50.2397 170.114 49.3752C195.611 48.4873 214.487 52.4689 225.797 55.9461C229.972 57.2298 233.881 58.6872 237.418 60.2564L237.475 60.2817L237.534 60.3022C237.558 60.3106 237.579 60.3175 237.598 60.3232C237.605 60.3253 237.611 60.3273 237.618 60.3291C237.991 60.4798 239.425 61.0321 241.244 61.4305C243.245 61.869 246.023 62.1945 248.353 61.2889C250.043 60.6324 251.403 59.7638 252.354 58.4437C253.299 57.1309 253.715 55.5422 253.852 53.6864L253.852 53.6862C254.072 50.7057 252.327 47.6619 249.461 44.8855L248.423 45.9565L249.461 44.8854C241.399 37.0781 227.745 32.4917 212.773 30.2415C197.736 27.9816 181.088 28.037 166.758 29.7406L166.935 31.2302L166.758 29.7406C136.921 33.2887 114.958 42.2717 101.763 49.2014L101.763 49.2014C99.394 50.4459 97.2208 51.6688 95.2354 52.8451L94.1742 53.4739L94.5861 54.6366C94.9297 55.6064 95.1516 56.517 95.2876 57.2719L95.633 59.1892L97.3982 58.3652C102.62 55.9279 107.778 57.1208 110.785 59.0367L110.838 59.0708C110.91 59.1181 110.975 59.1665 111.065 59.2324C111.117 59.2708 111.178 59.3152 111.252 59.3688ZM237.538 60.2963C237.542 60.2979 237.546 60.2999 237.552 60.3023C237.547 60.3003 237.542 60.2983 237.538 60.2963Z" fill="#A1FCE7" stroke="black" stroke-width="3"/>
<path d="M219.252 73.9486L219.252 73.9479C208.732 70.283 191.589 65.9539 169.53 66.0972C146.887 66.2402 128.798 69.9721 117.591 73.0834L116.746 73.318L116.536 74.1693C115.398 78.7819 112.067 81.3651 109.181 82.5722L107.075 83.4527L108.719 85.0363C109.532 85.8191 110.505 86.8442 111.477 88.07L112.063 88.8099L112.984 88.6011C154.126 79.273 191.994 83.9939 221.311 102.09L221.326 102.1L221.341 102.109C221.349 102.113 221.356 102.117 221.363 102.121C221.366 102.123 221.369 102.125 221.372 102.127L221.403 102.148L221.434 102.168C222.443 102.792 223.443 103.432 224.431 104.088C224.771 104.314 225.071 104.514 225.317 104.672C225.318 104.672 225.318 104.672 225.318 104.672L226.127 103.409M219.252 73.9486L218.998 75.4489C232.811 80.2934 240.259 85.7035 242.444 88.8786C244.728 92.1967 245.515 95.7947 244.661 99.0089C244.025 101.399 242.506 103.416 240.694 104.273C237.179 105.937 231.253 106.709 226.127 103.409M219.252 73.9486C226.317 76.4099 231.787 79.0322 235.793 81.4669C239.76 83.8781 242.402 86.1726 243.679 88.028M219.252 73.9486L243.679 88.028M226.127 103.409C225.894 103.259 225.605 103.068 225.262 102.839L226.127 103.409ZM243.679 88.028L242.464 88.8645L243.68 88.0282C243.68 88.0282 243.679 88.0281 243.679 88.028Z" fill="#FFE66A" stroke="black" stroke-width="3"/>
<mask id="path-5-outside-1_340_22" maskUnits="userSpaceOnUse" x="36" y="42" width="88" height="83" fill="black">
<rect fill="white" x="36" y="42" width="88" height="83"/>
<path d="M116.03 88.1291C115.373 87.1709 114.68 86.3064 114.012 85.553C112.138 83.4412 110.473 82.1917 110.45 82.1742C109.971 81.8202 109.749 81.2109 109.887 80.6274C110.024 80.0459 110.491 79.6044 111.073 79.5045C111.357 79.4551 116.875 78.4218 119.118 73.1874C119.531 72.221 119.835 71.1126 119.972 69.8395C120.002 69.5688 120.023 69.2899 120.037 69.0038C120.164 66.3609 118.838 61.9014 116.061 59.1607C115.603 58.7089 115.11 58.2982 114.574 57.9566C114.086 57.6457 113.536 57.3576 112.936 57.1064C109.804 55.7932 105.29 55.4875 100.887 58.2921C100.435 58.5792 99.8655 58.5977 99.396 58.3394C98.9275 58.0811 98.6332 57.5871 98.6281 57.0478C98.626 56.9099 98.5853 55.3373 97.9753 53.3674C97.7054 52.4947 97.3235 51.5458 96.7817 50.6072C95.8488 48.9893 94.4454 47.4074 92.3312 46.3216C88.9643 44.5926 81.7681 43.7744 76.787 48.943C73.5881 52.2621 73.2113 56.5414 73.2083 56.5836C73.1604 57.1785 72.7663 57.6869 72.2051 57.8763C71.645 58.0646 71.0268 57.8969 70.6357 57.4502C70.5247 57.3267 67.7475 54.2793 62.8326 54.2793C55.114 54.2793 51.1493 59.419 50.0229 62.4561C47.6388 68.8896 50.804 74.0303 50.8356 74.0818C51.1167 74.5284 51.1421 75.0924 50.9028 75.5628C50.6625 76.0331 50.194 76.3398 49.6705 76.3676C49.4312 76.382 43.6598 76.7875 40.6575 82.0744C37.9912 86.7685 38.2886 94.0592 43.4164 97.6542C47.2222 100.322 53.0802 99.4388 55.4236 98.9355C55.5254 98.9139 55.6283 98.9026 55.7301 98.9026C56.0957 98.9026 56.4522 99.0405 56.7272 99.2947C57.0785 99.6209 57.2516 100.098 57.1916 100.577C57.0968 101.349 55.0274 119.531 68.8474 121.485C77.284 122.678 81.7488 118.577 85.3346 115.282C86.7289 114.002 88.0457 112.791 89.4348 112.038C91.1794 111.092 94.0655 111.065 97.7186 111.033C105.257 110.963 114.639 110.875 118.046 103.192C118.469 102.24 118.778 101.28 118.983 100.315C119.2 99.2947 119.295 98.2686 119.271 97.2363C119.206 94.3628 118.216 91.4451 116.291 88.5099C116.205 88.3792 116.116 88.2546 116.03 88.1281V88.1291Z"/>
</mask>
<path d="M116.03 88.1291C115.373 87.1709 114.68 86.3064 114.012 85.553C112.138 83.4412 110.473 82.1917 110.45 82.1742C109.971 81.8202 109.749 81.2109 109.887 80.6274C110.024 80.0459 110.491 79.6044 111.073 79.5045C111.357 79.4551 116.875 78.4218 119.118 73.1874C119.531 72.221 119.835 71.1126 119.972 69.8395C120.002 69.5688 120.023 69.2899 120.037 69.0038C120.164 66.3609 118.838 61.9014 116.061 59.1607C115.603 58.7089 115.11 58.2982 114.574 57.9566C114.086 57.6457 113.536 57.3576 112.936 57.1064C109.804 55.7932 105.29 55.4875 100.887 58.2921C100.435 58.5792 99.8655 58.5977 99.396 58.3394C98.9275 58.0811 98.6332 57.5871 98.6281 57.0478C98.626 56.9099 98.5853 55.3373 97.9753 53.3674C97.7054 52.4947 97.3235 51.5458 96.7817 50.6072C95.8488 48.9893 94.4454 47.4074 92.3312 46.3216C88.9643 44.5926 81.7681 43.7744 76.787 48.943C73.5881 52.2621 73.2113 56.5414 73.2083 56.5836C73.1604 57.1785 72.7663 57.6869 72.2051 57.8763C71.645 58.0646 71.0268 57.8969 70.6357 57.4502C70.5247 57.3267 67.7475 54.2793 62.8326 54.2793C55.114 54.2793 51.1493 59.419 50.0229 62.4561C47.6388 68.8896 50.804 74.0303 50.8356 74.0818C51.1167 74.5284 51.1421 75.0924 50.9028 75.5628C50.6625 76.0331 50.194 76.3398 49.6705 76.3676C49.4312 76.382 43.6598 76.7875 40.6575 82.0744C37.9912 86.7685 38.2886 94.0592 43.4164 97.6542C47.2222 100.322 53.0802 99.4388 55.4236 98.9355C55.5254 98.9139 55.6283 98.9026 55.7301 98.9026C56.0957 98.9026 56.4522 99.0405 56.7272 99.2947C57.0785 99.6209 57.2516 100.098 57.1916 100.577C57.0968 101.349 55.0274 119.531 68.8474 121.485C77.284 122.678 81.7488 118.577 85.3346 115.282C86.7289 114.002 88.0457 112.791 89.4348 112.038C91.1794 111.092 94.0655 111.065 97.7186 111.033C105.257 110.963 114.639 110.875 118.046 103.192C118.469 102.24 118.778 101.28 118.983 100.315C119.2 99.2947 119.295 98.2686 119.271 97.2363C119.206 94.3628 118.216 91.4451 116.291 88.5099C116.205 88.3792 116.116 88.2546 116.03 88.1281V88.1291Z" fill="white"/>
<path d="M116.03 88.1291L113.555 89.8254L119.03 97.8106V88.1291H116.03ZM114.012 85.553L116.257 83.5626L116.256 83.5619L114.012 85.553ZM110.45 82.1742L112.245 79.7707L112.234 79.7623L110.45 82.1742ZM109.887 80.6274L106.967 79.9371L106.967 79.9394L109.887 80.6274ZM111.073 79.5045L111.58 82.4614L111.587 82.4602L111.073 79.5045ZM119.118 73.1874L121.875 74.3688L121.876 74.3675L119.118 73.1874ZM119.972 69.8395L116.99 69.5141L116.99 69.5174L119.972 69.8395ZM120.037 69.0038L123.034 69.1531L123.034 69.147L120.037 69.0038ZM116.061 59.1607L118.169 57.0258L118.168 57.0243L116.061 59.1607ZM114.574 57.9566L112.962 60.4866L112.962 60.4872L114.574 57.9566ZM112.936 57.1064L111.776 59.873L111.777 59.8737L112.936 57.1064ZM100.887 58.2921L102.495 60.8246L102.499 60.8223L100.887 58.2921ZM99.396 58.3394L97.9474 60.9665L97.9498 60.9678L99.396 58.3394ZM98.6281 57.0478L101.628 57.0195L101.628 57.0115L101.628 57.0035L98.6281 57.0478ZM97.9753 53.3674L95.1092 54.2537L95.1096 54.2549L97.9753 53.3674ZM96.7817 50.6072L94.1828 52.1057L94.1835 52.1069L96.7817 50.6072ZM92.3312 46.3216L93.7017 43.653L93.7017 43.653L92.3312 46.3216ZM76.787 48.943L78.9471 51.0248L78.9471 51.0248L76.787 48.943ZM73.2083 56.5836L76.1986 56.8242L76.1996 56.8123L76.2004 56.8003L73.2083 56.5836ZM72.2051 57.8763L73.1613 60.7198L73.1644 60.7188L72.2051 57.8763ZM70.6357 57.4502L72.8929 55.474L72.88 55.4593L72.8669 55.4447L70.6357 57.4502ZM50.0229 62.4561L47.2101 61.413L47.2098 61.4137L50.0229 62.4561ZM50.8356 74.0818L48.2785 75.6506L48.2874 75.6652L48.2965 75.6796L50.8356 74.0818ZM50.9028 75.5628L53.5742 76.9279L53.5766 76.9233L50.9028 75.5628ZM49.6705 76.3676L49.5115 73.3718L49.5009 73.3724L49.4902 73.373L49.6705 76.3676ZM40.6575 82.0744L43.2661 83.5561L43.2662 83.5558L40.6575 82.0744ZM43.4164 97.6542L41.6942 100.111L41.6945 100.111L43.4164 97.6542ZM55.4236 98.9355L54.8008 96.0008L54.7937 96.0024L55.4236 98.9355ZM56.7272 99.2947L58.7685 97.0963L58.7637 97.0918L56.7272 99.2947ZM57.1916 100.577L54.2149 100.203L54.2139 100.212L57.1916 100.577ZM68.8474 121.485L69.2674 118.514L69.2673 118.514L68.8474 121.485ZM85.3346 115.282L83.3055 113.072L83.3047 113.073L85.3346 115.282ZM89.4348 112.038L88.005 109.401L88.0046 109.401L89.4348 112.038ZM97.7186 111.033L97.7457 114.032L97.7465 114.032L97.7186 111.033ZM118.046 103.192L115.304 101.975L115.304 101.976L118.046 103.192ZM118.983 100.315L121.917 100.94L121.918 100.939L118.983 100.315ZM119.271 97.2363L116.272 97.3043L116.272 97.3044L119.271 97.2363ZM116.291 88.5099L113.78 90.1528L113.782 90.1556L116.291 88.5099ZM116.03 88.1281L118.506 86.4346L113.03 78.4263V88.1281H116.03ZM118.504 86.4328C117.768 85.3592 116.997 84.3969 116.257 83.5626L111.768 87.5435C112.364 88.2159 112.978 88.9826 113.555 89.8254L118.504 86.4328ZM116.256 83.5619C114.202 81.2468 112.366 79.8612 112.245 79.7707L108.655 84.5778C108.58 84.5223 110.075 85.6355 111.768 87.5442L116.256 83.5619ZM112.234 79.7623C112.727 80.1273 112.942 80.7409 112.807 81.3154L106.967 79.9394C106.556 81.6809 107.215 83.5131 108.666 84.5862L112.234 79.7623ZM112.806 81.3177C112.671 81.8899 112.201 82.355 111.58 82.4614L110.566 76.5476C108.78 76.8537 107.377 78.2019 106.967 79.9371L112.806 81.3177ZM111.587 82.4602C111.979 82.392 118.975 81.1394 121.875 74.3688L116.36 72.006C115.579 73.8284 114.224 74.9526 112.932 75.6528C111.621 76.3629 110.515 76.5566 110.559 76.5489L111.587 82.4602ZM121.876 74.3675C122.409 73.1215 122.786 71.7233 122.955 70.1616L116.99 69.5174C116.883 70.5019 116.653 71.3206 116.36 72.0073L121.876 74.3675ZM122.954 70.1649C122.991 69.829 123.017 69.491 123.034 69.1531L117.041 68.8545C117.029 69.0888 117.012 69.3086 116.99 69.5141L122.954 70.1649ZM123.034 69.147C123.121 67.3278 122.717 65.1433 121.951 63.0762C121.178 60.991 119.946 58.7795 118.169 57.0258L113.954 61.2956C114.954 62.2826 115.772 63.6712 116.325 65.1617C116.884 66.6702 117.08 68.0369 117.041 68.8606L123.034 69.147ZM118.168 57.0243C117.593 56.4578 116.936 55.9044 116.185 55.4259L112.962 60.4872C113.284 60.6921 113.613 60.96 113.955 61.2971L118.168 57.0243ZM116.186 55.4265C115.547 55.0194 114.844 54.653 114.094 54.3392L111.777 59.8737C112.227 60.0621 112.625 60.2721 112.962 60.4866L116.186 55.4265ZM114.096 54.3399C110.195 52.7039 104.625 52.3538 99.2752 55.7618L102.499 60.8223C105.954 58.6213 109.414 58.8826 111.776 59.873L114.096 54.3399ZM99.2788 55.7595C99.7486 55.4612 100.35 55.4402 100.842 55.711L97.9498 60.9678C99.381 61.7553 101.121 61.6973 102.495 60.8246L99.2788 55.7595ZM100.845 55.7123C101.33 55.9802 101.623 56.483 101.628 57.0195L95.6282 57.0761C95.6435 58.6911 96.5246 60.182 97.9474 60.9665L100.845 55.7123ZM101.628 57.0035C101.623 56.6954 101.564 54.8152 100.841 52.48L95.1096 54.2549C95.6064 55.8594 95.6289 57.1243 95.6284 57.0921L101.628 57.0035ZM100.841 52.4811C100.518 51.4349 100.053 50.2733 99.3799 49.1074L94.1835 52.1069C94.5941 52.8182 94.893 53.5545 95.1092 54.2537L100.841 52.4811ZM99.3806 49.1086C98.2147 47.0866 96.4198 45.0489 93.7017 43.653L90.9607 48.9903C92.4711 49.766 93.483 50.892 94.1828 52.1057L99.3806 49.1086ZM93.7017 43.653C89.5581 41.5251 80.8051 40.4504 74.6269 46.8612L78.9471 51.0248C82.7311 47.0984 88.3704 47.6601 90.9607 48.9903L93.7017 43.653ZM74.6269 46.8611C70.6888 50.9473 70.2352 56.1027 70.2161 56.367L76.2004 56.8003C76.1874 56.9801 76.4875 53.5769 78.9471 51.0248L74.6269 46.8611ZM70.2179 56.343C70.2651 55.757 70.6573 55.2324 71.2459 55.0338L73.1644 60.7188C74.8753 60.1414 76.0557 58.6 76.1986 56.8242L70.2179 56.343ZM71.249 55.0327C71.8433 54.8329 72.4907 55.0146 72.8929 55.474L68.3786 59.4264C69.563 60.7791 71.4467 61.2964 73.1613 60.7198L71.249 55.0327ZM72.8669 55.4447C72.5554 55.0982 69.0267 51.2793 62.8326 51.2793V57.2793C66.4684 57.2793 68.4941 59.5552 68.4046 59.4557L72.8669 55.4447ZM62.8326 51.2793C53.5658 51.2793 48.6609 57.5011 47.2101 61.413L52.8357 63.4993C53.6376 61.337 56.6621 57.2793 62.8326 57.2793V51.2793ZM47.2098 61.4137C45.766 65.3098 46.0046 68.8269 46.6044 71.3547C46.9036 72.6159 47.2949 73.6435 47.6218 74.3738C47.7857 74.7401 47.935 75.0351 48.0511 75.2511C48.1092 75.3593 48.1591 75.4479 48.1985 75.5161C48.2183 75.5502 48.2354 75.5792 48.2495 75.6028C48.2566 75.6146 48.2629 75.625 48.2682 75.6338C48.2709 75.6383 48.2733 75.6421 48.2753 75.6455C48.2772 75.6485 48.2792 75.6518 48.2785 75.6506L53.3927 72.5129C53.3921 72.5119 53.3938 72.5148 53.3955 72.5175C53.3969 72.5198 53.3977 72.5211 53.3979 72.5215C53.3984 72.5223 53.3962 72.5187 53.3916 72.5107C53.3824 72.4948 53.3634 72.4615 53.3366 72.4115C53.2828 72.3115 53.1983 72.1461 53.0983 71.9227C52.8973 71.4736 52.6403 70.8043 52.4423 69.9696C52.0476 68.3059 51.8957 66.0359 52.8359 63.4986L47.2098 61.4137ZM48.2965 75.6796C48.0147 75.2318 47.9899 74.6722 48.2291 74.2022L53.5766 76.9233C54.2943 75.5127 54.2187 73.8251 53.3747 72.4839L48.2965 75.6796ZM48.2314 74.1976C48.4712 73.7284 48.9521 73.4015 49.5115 73.3718L49.8295 79.3634C51.4358 79.2781 52.8537 78.3379 53.5742 76.9279L48.2314 74.1976ZM49.4902 73.373C49.0986 73.3966 41.8656 73.8718 38.0488 80.593L43.2662 83.5558C44.3525 81.643 45.9359 80.5993 47.3463 80.0162C48.7807 79.4232 49.9248 79.3577 49.8508 79.3622L49.4902 73.373ZM38.0489 80.5927C34.8664 86.1958 34.9275 95.3667 41.6942 100.111L45.1385 95.1977C41.6497 92.7518 41.1161 87.3412 43.2661 83.5561L38.0489 80.5927ZM41.6945 100.111C44.2905 101.93 47.3924 102.427 49.9015 102.483C52.4557 102.54 54.7573 102.147 56.0535 101.869L54.7937 96.0024C53.7464 96.2273 51.9474 96.5273 50.0353 96.4847C48.0781 96.441 46.3481 96.0455 45.1383 95.1975L41.6945 100.111ZM56.0464 101.87C55.9559 101.889 55.8499 101.903 55.7301 101.903V95.9026C55.4066 95.9026 55.095 95.9384 54.8008 96.0008L56.0464 101.87ZM55.7301 101.903C55.3401 101.903 54.9695 101.755 54.6907 101.498L58.7637 97.0918C57.9348 96.3256 56.8514 95.9026 55.7301 95.9026V101.903ZM54.6858 101.493C54.3257 101.159 54.1554 100.677 54.2149 100.203L60.1682 100.951C60.3479 99.5197 59.8313 98.0832 58.7685 97.0963L54.6858 101.493ZM54.2139 100.212C54.1533 100.706 53.558 105.88 54.8878 111.302C56.2349 116.795 59.8011 123.236 68.4275 124.455L69.2673 118.514C64.0737 117.78 61.7646 114.153 60.7151 109.873C59.6484 105.523 60.1351 101.22 60.1692 100.942L54.2139 100.212ZM68.4274 124.455C73.2491 125.137 77.0814 124.309 80.2339 122.759C83.2948 121.253 85.6025 119.11 87.3646 117.491L83.3047 113.073C81.4809 114.749 79.7633 116.304 77.5862 117.374C75.5007 118.4 72.8823 119.026 69.2674 118.514L68.4274 124.455ZM87.3638 117.492C88.8353 116.14 89.8672 115.216 90.865 114.675L88.0046 109.401C86.2241 110.366 84.6225 111.863 83.3055 113.072L87.3638 117.492ZM90.8646 114.675C91.1927 114.497 91.8584 114.298 93.1371 114.18C94.3832 114.065 95.8811 114.049 97.7457 114.032L97.6916 108.033C95.9031 108.049 94.1314 108.063 92.585 108.206C91.0712 108.346 89.4214 108.633 88.005 109.401L90.8646 114.675ZM97.7465 114.032C101.433 113.998 106.058 113.972 110.205 112.866C114.468 111.728 118.598 109.347 120.789 104.409L115.304 101.976C114.087 104.72 111.823 106.224 108.658 107.069C105.377 107.944 101.543 107.997 97.6908 108.033L97.7465 114.032ZM120.788 104.409C121.295 103.267 121.668 102.108 121.917 100.94L116.049 99.6893C115.887 100.452 115.643 101.213 115.304 101.975L120.788 104.409ZM121.918 100.939C122.183 99.6897 122.299 98.4313 122.271 97.1683L116.272 97.3044C116.29 98.1059 116.217 98.8996 116.049 99.6905L121.918 100.939ZM122.271 97.1683C122.19 93.6264 120.968 90.1707 118.799 86.8642L113.782 90.1556C115.464 92.7195 116.222 95.0993 116.272 97.3043L122.271 97.1683ZM118.801 86.867C118.695 86.7052 118.55 86.4979 118.506 86.4346L113.554 89.8215C113.683 90.0113 113.715 90.0532 113.78 90.1528L118.801 86.867ZM113.03 88.1281V88.1291H119.03V88.1281H113.03Z" fill="black" mask="url(#path-5-outside-1_340_22)"/>
<path d="M68.634 74.7023C69.9203 73.1945 70.5487 71.2699 70.403 69.2847C70.2574 67.2994 69.3551 65.489 67.8631 64.1892C66.3701 62.8893 64.4656 62.2553 62.5021 62.4015C58.4457 62.7051 55.3905 66.2877 55.6919 70.3859C55.8375 72.3712 56.7399 74.1805 58.2319 75.4814C59.5833 76.6577 61.2708 77.2896 63.0358 77.2896C63.2211 77.2896 63.4065 77.2824 63.5928 77.2691C65.5574 77.1219 67.3488 76.21 68.635 74.7023H68.634ZM66.4393 71.3657H66.4302C65.7376 71.3657 65.1724 70.8006 65.1673 70.0987C65.1622 69.8486 65.0675 69.0747 64.6978 68.6054C64.1153 67.8664 63.4584 67.7563 63.4309 67.7522C62.7374 67.6802 62.2475 67.0544 62.3188 66.3535C62.3901 65.6527 63.0256 65.1443 63.7191 65.2163C63.8902 65.2338 65.429 65.4365 66.6736 67.0153C67.6512 68.2565 67.692 69.896 67.693 70.0792C67.6981 70.7842 67.1369 71.3595 66.4393 71.3646V71.3657Z" fill="#FFB1B5"/>
<path d="M80.9491 66.9056C82.3005 68.0819 83.9881 68.7138 85.753 68.7138C85.9383 68.7138 86.1237 68.7066 86.3101 68.6933C88.2746 68.5461 90.066 67.6342 91.3523 66.1265C92.6385 64.6187 93.2669 62.6942 93.1213 60.7089C93.0317 59.4913 92.6559 58.3407 92.0356 57.3321C91.6446 56.6961 91.1588 56.1167 90.5813 55.6134C90.3868 55.4436 90.1841 55.2871 89.9764 55.14C88.5903 54.1622 86.9272 53.697 85.2204 53.8257C81.164 54.1293 78.1087 57.7119 78.4102 61.8101C78.5558 63.7954 79.4581 65.6047 80.9501 66.9056H80.9491ZM85.2214 57.9784C85.3212 57.2807 85.9638 56.7959 86.6523 56.8988C86.8417 56.9266 87.0759 56.9853 87.3285 57.0759C88.1035 57.3517 89.069 57.9558 89.6617 59.0467C89.7024 59.1219 89.7493 59.1888 89.787 59.268C90.6261 61.0814 90.0355 62.6705 89.9662 62.8465C89.7676 63.3425 89.2951 63.6441 88.795 63.6441C88.6372 63.6441 88.4773 63.6142 88.3225 63.5504C87.6758 63.2859 87.3641 62.5429 87.6249 61.8893C87.6279 61.8811 87.8214 61.3181 87.6045 60.6245C87.576 60.5339 87.5434 60.4423 87.4996 60.3487C87.1442 59.5799 86.2989 59.4244 86.2907 59.4234C85.8355 59.3565 85.477 59.0509 85.311 58.6505C85.2255 58.4447 85.1878 58.2152 85.2224 57.9774L85.2214 57.9784Z" fill="#FFB1B5"/>
<path d="M50.5258 81.9692C48.7934 82.0989 47.2149 82.9027 46.0804 84.2324C44.9458 85.5621 44.3918 87.2592 44.5201 89.0098C44.6485 90.7605 45.4438 92.3557 46.7596 93.5022C47.9512 94.5396 49.4391 95.0964 50.9953 95.0964C51.1582 95.0964 51.3222 95.0902 51.4861 95.0779C53.2185 94.9482 54.797 94.1444 55.9316 92.8147C57.0661 91.485 57.6201 89.7879 57.4908 88.0373C57.226 84.4228 54.0964 81.7026 50.5248 81.9692H50.5258ZM54.9977 89.7251C54.9325 90.0977 54.7125 90.4013 54.4182 90.5865C54.2226 90.709 53.9955 90.7811 53.7552 90.7811C53.6829 90.7811 53.6096 90.7749 53.5352 90.7615C52.8488 90.6401 52.3895 89.9783 52.5097 89.2846C52.5097 89.2754 52.6044 88.5272 52.0595 87.8489C51.6603 87.3518 51.0523 87.2983 51.0258 87.2963C50.3292 87.2674 49.7976 86.6736 49.8261 85.9696C49.8546 85.2657 50.4596 84.7233 51.1501 84.747C51.3273 84.7542 52.9099 84.8581 54.02 86.2393C54.6188 86.9854 54.8755 87.7625 54.9773 88.3964C55.0903 89.0994 55.014 89.6243 54.9966 89.7251H54.9977Z" fill="#FFB1B5"/>
<path d="M112.067 72.5562C112.595 71.5178 112.861 70.3291 112.771 69.0828C112.642 67.3321 111.847 65.7369 110.531 64.5904C109.353 63.5633 107.88 63.0116 106.344 63.0003C106.164 62.9993 105.985 63.0003 105.805 63.0137C104.794 63.0898 103.837 63.4017 102.988 63.907C102.383 64.2672 101.831 64.7231 101.359 65.2768C100.225 66.6065 99.6708 68.3026 99.8002 70.0533C99.9285 71.8039 100.724 73.3991 102.04 74.5457C103.231 75.5831 104.719 76.1399 106.276 76.1399C106.439 76.1399 106.603 76.1337 106.767 76.1213C107.106 76.0956 107.435 76.0369 107.757 75.9608C109.655 75.5151 111.213 74.24 112.069 72.5542L112.067 72.5562ZM109.828 71.348C109.65 71.8811 109.158 72.2166 108.631 72.2166C108.498 72.2166 108.361 72.195 108.228 72.1497C107.567 71.9243 107.211 71.2008 107.434 70.5329C107.52 70.2766 107.635 69.7548 107.443 69.1507C107.319 68.7565 107.05 68.4395 106.644 68.21C106.036 67.8652 105.82 67.0872 106.161 66.4728C106.502 65.8583 107.272 65.6401 107.88 65.9849C108.555 66.3678 109.444 67.0934 109.848 68.3747C110.238 69.6076 110.052 70.6718 109.827 71.348H109.828Z" fill="#FFB1B5"/>
<path d="M101.73 89.1423C101.73 89.1423 101.729 89.1393 101.728 89.1382C100.222 85.357 97.5121 82.5926 93.8926 81.1435C88.1793 78.8567 81.4699 80.2296 77.0958 82.2787C66.385 87.295 64.8584 96.432 66.4451 101.348C67.5654 104.819 70.1471 106.863 73.24 106.863C73.7197 106.863 74.2126 106.813 74.7137 106.713C77.6386 106.124 79.542 104.845 81.3833 103.606C83.9589 101.875 86.6211 100.085 92.6705 99.6606C96.9244 99.3621 99.8219 98.0767 101.282 95.8382C101.999 94.739 102.336 93.4217 102.288 91.988C102.259 91.0947 102.081 90.1571 101.75 89.1989C101.744 89.1804 101.736 89.1619 101.729 89.1434L101.73 89.1423ZM92.9424 89.2463C90.6082 86.8483 86.9785 86.7279 86.9419 86.7268C86.2463 86.7094 85.6943 86.1258 85.7096 85.4229C85.7249 84.7199 86.284 84.1673 86.9948 84.1755C87.1843 84.1796 91.6735 84.3042 94.742 87.4565C95.2308 87.9588 95.2247 88.7667 94.7277 89.2607C94.4823 89.5056 94.1615 89.6271 93.8427 89.6271C93.5239 89.6271 93.1899 89.4995 92.9424 89.2463ZM96.291 94.4241C96.2299 94.4334 96.1688 94.4375 96.1077 94.4375C95.4905 94.4375 94.9507 93.9795 94.8601 93.3445C94.8204 93.0666 94.7684 92.7939 94.7063 92.5345C94.5424 91.8491 94.9589 91.1606 95.6372 90.9949C96.3144 90.8292 96.9978 91.2501 97.1607 91.9355C97.2412 92.2721 97.3074 92.623 97.3593 92.9781C97.4591 93.6759 96.9815 94.3232 96.291 94.4241Z" fill="#FFB1B5"/>
<path d="M54.0211 86.2392C52.9121 84.8581 51.3284 84.7541 51.1512 84.7469C50.4607 84.7222 49.8558 85.2646 49.8273 85.9696C49.7988 86.6735 50.3304 87.2674 51.027 87.2962C51.0524 87.2982 51.6614 87.3518 52.0607 87.8489C52.6055 88.5281 52.5118 89.2753 52.5108 89.2846C52.3906 89.9782 52.8499 90.64 53.5364 90.7614C53.6097 90.7748 53.684 90.781 53.7563 90.781C53.9967 90.781 54.2238 90.709 54.4193 90.5865C54.7137 90.4012 54.9336 90.0976 54.9988 89.7251C55.0161 89.6242 55.0925 89.0993 54.9795 88.3964C54.8776 87.7634 54.621 86.9854 54.0221 86.2392H54.0211Z" fill="white"/>
<path d="M63.7187 65.216C63.0252 65.1429 62.3897 65.6513 62.3184 66.3532C62.2471 67.0541 62.737 67.6788 63.4305 67.7519C63.458 67.756 64.1159 67.8661 64.6974 68.6051C65.0671 69.0744 65.1618 69.8483 65.1669 70.0984C65.172 70.8003 65.7362 71.3653 66.4298 71.3653H66.4389C67.1366 71.3602 67.6977 70.7849 67.6926 70.0799C67.6916 69.8967 67.6509 68.2572 66.6732 67.016C65.4287 65.4372 63.8898 65.2345 63.7187 65.217V65.216Z" fill="white"/>
<path d="M86.2892 59.419C86.2974 59.42 87.1427 59.5765 87.4981 60.3442C87.5419 60.4379 87.5745 60.5295 87.603 60.6201C87.8199 61.3137 87.6264 61.8767 87.6234 61.8849C87.3616 62.5384 87.6743 63.2815 88.321 63.546C88.4758 63.6098 88.6367 63.6397 88.7935 63.6397C89.2926 63.6397 89.7661 63.3381 89.9647 62.8421C90.035 62.6671 90.6257 61.077 89.7855 59.2636C89.7488 59.1833 89.7009 59.1174 89.6602 59.0423C89.0675 57.9514 88.102 57.3473 87.327 57.0714C87.0744 56.9819 86.8412 56.9222 86.6508 56.8944C85.9633 56.7925 85.3197 57.2762 85.2199 57.974C85.1863 58.2118 85.2229 58.4413 85.3085 58.6471C85.4745 59.0464 85.833 59.3531 86.2882 59.42L86.2892 59.419Z" fill="white"/>
<path d="M106.644 68.2109C107.05 68.4414 107.319 68.7574 107.443 69.1515C107.633 69.7557 107.519 70.2764 107.434 70.5337C107.211 71.2017 107.566 71.9252 108.227 72.1506C108.361 72.1959 108.497 72.2175 108.63 72.2175C109.158 72.2175 109.649 71.8809 109.827 71.3488C110.052 70.6737 110.239 69.6095 109.848 68.3755C109.443 67.0942 108.555 66.3686 107.881 65.9858C107.273 65.641 106.503 65.8592 106.162 66.4736C105.821 67.088 106.037 67.8661 106.645 68.2109H106.644Z" fill="white"/>
<path d="M97.1595 91.9396C96.9955 91.2542 96.3121 90.8333 95.6359 90.999C94.9587 91.1647 94.5411 91.8542 94.7051 92.5386C94.7672 92.798 94.8191 93.0707 94.8588 93.3486C94.9495 93.9836 95.4893 94.4416 96.1064 94.4416C96.1665 94.4416 96.2276 94.4375 96.2897 94.4282C96.9802 94.3273 97.4579 93.68 97.3581 92.9822C97.3071 92.6271 97.2409 92.2762 97.1595 91.9396Z" fill="white"/>
<path d="M94.7422 87.4608C91.6727 84.3084 87.1845 84.1829 86.9951 84.1798C86.2842 84.1715 85.7251 84.7232 85.7098 85.4271C85.6935 86.1301 86.2455 86.7136 86.9421 86.7311C86.9788 86.7322 90.6084 86.8526 92.9427 89.2506C93.1901 89.5048 93.516 89.6314 93.8429 89.6314C94.1699 89.6314 94.4825 89.5099 94.728 89.265C95.2249 88.771 95.2311 87.9631 94.7422 87.4608Z" fill="white"/>
</g>
<defs>
<clipPath id="clip0_340_22">
<rect width="294" height="152" fill="white"/>
</clipPath>
</defs>
</svg>
