<svg width="294" height="152" viewBox="0 0 294 152" fill="none" xmlns="http://www.w3.org/2000/svg">
<g clip-path="url(#clip0_340_38)">
<path d="M240.469 90.5133C239.448 90.5133 238.69 90.1787 238.197 89.5095C237.739 88.8051 237.598 87.8541 237.775 86.6567L240.892 67.1095C241.068 66.0176 241.473 65.2076 242.107 64.6793C242.741 64.1157 243.603 63.834 244.695 63.834C245.717 63.834 246.456 64.1686 246.914 64.8378C247.407 65.5069 247.566 66.4579 247.39 67.6906L244.273 87.2378C244.097 88.3296 243.692 89.1573 243.058 89.7208C242.459 90.2491 241.596 90.5133 240.469 90.5133ZM245.541 58.9736C244.343 58.9736 243.445 58.6918 242.846 58.1283C242.283 57.5296 242.054 56.7019 242.159 55.6453C242.3 54.4478 242.758 53.5497 243.533 52.9509C244.308 52.317 245.347 52 246.65 52C247.848 52 248.746 52.2994 249.344 52.8981C249.943 53.4616 250.172 54.2717 250.031 55.3283C249.89 56.5258 249.432 57.4415 248.658 58.0755C247.918 58.6742 246.879 58.9736 245.541 58.9736Z" fill="#A1FCE7"/>
<path d="M211.135 90.5117C209.973 90.5117 209.128 90.1771 208.599 89.508C208.071 88.8036 207.895 87.8526 208.071 86.6551L212.878 56.1192C213.055 55.0274 213.46 54.2173 214.094 53.689C214.763 53.1255 215.643 52.8438 216.735 52.8438H234.803C235.719 52.8438 236.423 53.0375 236.916 53.4249C237.409 53.7771 237.656 54.3054 237.656 55.0098C237.656 55.996 237.374 56.7884 236.811 57.3872C236.282 57.9507 235.507 58.2324 234.486 58.2324H219.377L217.686 68.7457H231.158C232.073 68.7457 232.778 68.9394 233.271 69.3268C233.764 69.679 234.011 70.2073 234.011 70.9117C234.011 71.8979 233.729 72.6903 233.165 73.2891C232.637 73.8526 231.862 74.1343 230.841 74.1343H216.841L214.78 87.1834C214.428 89.4023 213.213 90.5117 211.135 90.5117Z" fill="#A1FCE7"/>
<path d="M190.833 90.5115C189.777 90.5115 189.002 90.1946 188.509 89.5606C188.051 88.8914 187.91 87.9581 188.086 86.7606L191.203 67.0021C191.379 65.9455 191.784 65.153 192.418 64.6247C193.052 64.0964 193.88 63.8323 194.901 63.8323C195.923 63.8323 196.662 64.1492 197.12 64.7832C197.613 65.4172 197.772 66.3329 197.596 67.5304L197.12 70.4889H196.592C197.296 68.4109 198.458 66.8084 200.079 65.6813C201.699 64.5191 203.618 63.8675 205.837 63.7266C206.823 63.6562 207.475 63.797 207.792 64.1492C208.144 64.5014 208.32 65.0826 208.32 65.8926C208.32 67.0549 208.056 67.9178 207.528 68.4813C206.999 69.0096 206.172 69.3266 205.045 69.4323L203.513 69.5908C201.153 69.8373 199.462 70.5593 198.441 71.7568C197.419 72.9191 196.733 74.5568 196.38 76.67L194.69 87.3417C194.549 88.3983 194.144 89.1908 193.475 89.7191C192.841 90.2474 191.96 90.5115 190.833 90.5115Z" fill="#A1FCE7"/>
<path d="M171.535 90.5115C170.478 90.5115 169.703 90.1946 169.21 89.5606C168.753 88.8914 168.612 87.9581 168.788 86.7606L171.905 67.0021C172.081 65.9455 172.486 65.153 173.12 64.6247C173.754 64.0964 174.581 63.8323 175.603 63.8323C176.624 63.8323 177.364 64.1492 177.822 64.7832C178.315 65.4172 178.473 66.3329 178.297 67.5304L177.822 70.4889H177.293C177.998 68.4109 179.16 66.8084 180.78 65.6813C182.4 64.5191 184.32 63.8675 186.539 63.7266C187.525 63.6562 188.176 63.797 188.493 64.1492C188.846 64.5014 189.022 65.0826 189.022 65.8926C189.022 67.0549 188.758 67.9178 188.229 68.4813C187.701 69.0096 186.873 69.3266 185.746 69.4323L184.214 69.5908C181.854 69.8373 180.164 70.5593 179.142 71.7568C178.121 72.9191 177.434 74.5568 177.082 76.67L175.392 87.3417C175.251 88.3983 174.846 89.1908 174.176 89.7191C173.542 90.2474 172.662 90.5115 171.535 90.5115Z" fill="#A1FCE7"/>
<path d="M148.301 90.6189C146.47 90.6189 144.902 90.2315 143.599 89.4567C142.296 88.6818 141.363 87.4843 140.799 85.8642C140.271 84.2441 140.2 82.1837 140.588 79.6831L142.648 66.8981C142.824 65.8415 143.212 65.0667 143.811 64.5736C144.409 64.0805 145.219 63.834 146.241 63.834C147.333 63.834 148.125 64.151 148.618 64.7849C149.146 65.3837 149.323 66.2818 149.146 67.4793L147.245 79.6302C146.963 81.5673 147.104 83.0114 147.667 83.9623C148.266 84.9133 149.358 85.3887 150.943 85.3887C152.915 85.3887 154.517 84.7372 155.75 83.434C156.983 82.1309 157.775 80.3522 158.128 78.0982L159.871 66.8981C160.047 65.8415 160.434 65.0667 161.033 64.5736C161.632 64.0805 162.442 63.834 163.463 63.834C164.59 63.834 165.401 64.151 165.894 64.7849C166.387 65.4189 166.545 66.3346 166.369 67.5321L163.252 87.3963C162.935 89.4743 161.738 90.5133 159.66 90.5133C158.638 90.5133 157.881 90.2315 157.388 89.668C156.895 89.1045 156.719 88.2416 156.86 87.0793L157.388 83.2755L157.758 84.7019C156.842 86.639 155.556 88.1183 153.901 89.1397C152.281 90.1258 150.414 90.6189 148.301 90.6189Z" fill="#A1FCE7"/>
<path d="M110.565 100.023C109.543 100.023 108.786 99.6883 108.293 99.0191C107.8 98.35 107.641 97.4166 107.818 96.2191L112.414 67.2153C112.59 66.0883 112.995 65.243 113.629 64.6795C114.263 64.1159 115.126 63.8342 116.218 63.8342C117.239 63.8342 117.961 64.1688 118.384 64.838C118.841 65.5071 118.982 66.4581 118.806 67.6908L118.331 70.6493L118.225 69.0644C119.211 67.3386 120.479 66.0178 122.029 65.1021C123.614 64.1864 125.41 63.7285 127.418 63.7285C129.39 63.7285 131.098 64.1864 132.542 65.1021C134.021 65.9826 135.166 67.2681 135.976 68.9587C136.786 70.6141 137.191 72.5864 137.191 74.8757C137.191 77.799 136.663 80.4581 135.606 82.8531C134.585 85.2128 133.106 87.0971 131.169 88.5059C129.231 89.9147 126.907 90.6191 124.195 90.6191C122.223 90.6191 120.462 90.1437 118.912 89.1927C117.397 88.2418 116.341 86.833 115.742 84.9663H116.218L114.316 96.9059C114.14 97.9977 113.752 98.7902 113.153 99.2833C112.555 99.7764 111.692 100.023 110.565 100.023ZM122.98 85.6002C124.6 85.6002 125.956 85.1424 127.048 84.2267C128.175 83.3109 129.038 82.0606 129.636 80.4757C130.235 78.8908 130.535 77.1298 130.535 75.1927C130.535 73.1147 130.024 71.5298 129.002 70.438C128.016 69.3109 126.643 68.7474 124.882 68.7474C123.297 68.7474 121.941 69.2053 120.814 70.121C119.687 71.0367 118.824 72.287 118.225 73.8719C117.626 75.4216 117.327 77.1826 117.327 79.155C117.327 81.2329 117.82 82.8355 118.806 83.9625C119.828 85.0543 121.219 85.6002 122.98 85.6002Z" fill="#A1FCE7"/>
<path d="M87.5282 100.023C86.6829 100.023 86.0313 99.829 85.5734 99.4416C85.1156 99.0542 84.869 98.5435 84.8338 97.9095C84.7986 97.3108 84.9923 96.6592 85.4149 95.9548L90.4338 87.7133L90.0112 90.4604L83.9357 68.3774C83.6892 67.4969 83.6539 66.722 83.83 66.0529C84.0061 65.3484 84.3583 64.8025 84.8866 64.4151C85.4502 64.0277 86.137 63.834 86.947 63.834C87.8627 63.834 88.5495 64.0629 89.0074 64.5208C89.5005 64.9434 89.8703 65.7183 90.1168 66.8453L94.3433 84.3321H92.7055L103.06 66.2113C103.553 65.3661 104.064 64.7673 104.592 64.4151C105.121 64.0277 105.807 63.834 106.653 63.834C107.498 63.834 108.15 64.0277 108.607 64.4151C109.101 64.8025 109.365 65.3132 109.4 65.9472C109.47 66.5459 109.294 67.2151 108.872 67.9547L91.1206 97.6454C90.6275 98.4906 90.1168 99.0894 89.5885 99.4416C89.0602 99.829 88.3734 100.023 87.5282 100.023Z" fill="#A1FCE7"/>
<path d="M46.9479 90.5125C45.8209 90.5125 45.0108 90.1603 44.5177 89.4559C44.0247 88.7515 43.8838 87.7653 44.0951 86.4974L48.9555 55.803C49.1316 54.676 49.5366 53.8307 50.1706 53.2672C50.8045 52.7036 51.685 52.4219 52.8121 52.4219C53.9391 52.4219 54.7316 52.7741 55.1895 53.4785C55.6825 54.1829 55.8234 55.1691 55.6121 56.437L53.7102 68.3766H72.8876L74.8951 55.803C75.0712 54.676 75.4587 53.8307 76.0574 53.2672C76.6914 52.7036 77.5719 52.4219 78.6989 52.4219C79.826 52.4219 80.636 52.7741 81.1291 53.4785C81.6222 54.1477 81.7631 55.1338 81.5518 56.437L76.6914 87.0785C76.5153 88.2056 76.1102 89.0685 75.4763 89.6672C74.8775 90.2307 74.0146 90.5125 72.8876 90.5125C71.7253 90.5125 70.8977 90.1603 70.4046 89.4559C69.9467 88.7515 69.8234 87.7653 70.0348 86.4974L71.9895 74.0295H52.8121L50.7517 87.0785C50.5756 88.2056 50.1706 89.0685 49.5366 89.6672C48.9379 90.2307 48.075 90.5125 46.9479 90.5125Z" fill="#A1FCE7"/>
</g>
<defs>
<clipPath id="clip0_340_38">
<rect width="294" height="152" fill="white"/>
</clipPath>
</defs>
</svg>
