<svg width="49" height="49" viewBox="0 0 49 49" fill="none" xmlns="http://www.w3.org/2000/svg">
<mask id="path-1-inside-1_3675_2" fill="white">
<path d="M42 25C42 34.9411 33.9411 43 24 43C14.0589 43 6 34.9411 6 25C6 15.0589 14.0589 7 24 7C33.9411 7 42 15.0589 42 25Z"/>
</mask>
<g clip-path="url(#paint0_angular_3675_2_clip_path)" data-figma-skip-parse="true" mask="url(#path-1-inside-1_3675_2)"><g transform="matrix(-0.018 -0.0075 0.00726641 -0.0174394 24 25)"><foreignObject x="-1334.9" y="-1334.9" width="2669.8" height="2669.8"><div xmlns="http://www.w3.org/1999/xhtml" style="background:conic-gradient(from 90deg,rgba(194, 244, 188, 1) 0deg,rgba(251, 229, 114, 0) 1.73077deg,rgba(246, 230, 120, 0.3407) 159.231deg,rgba(237, 232, 131, 1) 221.538deg,rgba(194, 244, 188, 1) 360deg);height:100%;width:100%;opacity:1"></div></foreignObject></g></g><path d="M42 25H40.7143C40.7143 34.231 33.231 41.7143 24 41.7143V43V44.2857C34.6512 44.2857 43.2857 35.6512 43.2857 25H42ZM24 43V41.7143C14.769 41.7143 7.28571 34.231 7.28571 25H6H4.71429C4.71429 35.6512 13.3488 44.2857 24 44.2857V43ZM6 25H7.28571C7.28571 15.769 14.769 8.28571 24 8.28571V7V5.71429C13.3488 5.71429 4.71429 14.3488 4.71429 25H6ZM24 7V8.28571C33.231 8.28571 40.7143 15.769 40.7143 25H42H43.2857C43.2857 14.3488 34.6512 5.71429 24 5.71429V7Z" data-figma-gradient-fill="{&#34;type&#34;:&#34;GRADIENT_ANGULAR&#34;,&#34;stops&#34;:[{&#34;color&#34;:{&#34;r&#34;:0.98431372642517090,&#34;g&#34;:0.89803922176361084,&#34;b&#34;:0.44705882668495178,&#34;a&#34;:0.0},&#34;position&#34;:0.0048076924867928028},{&#34;color&#34;:{&#34;r&#34;:0.96600466966629028,&#34;g&#34;:0.90285736322402954,&#34;b&#34;:0.47082844376564026,&#34;a&#34;:0.34074074029922485},&#34;position&#34;:0.44230768084526062},{&#34;color&#34;:{&#34;r&#34;:0.93058067560195923,&#34;g&#34;:0.91217947006225586,&#34;b&#34;:0.51681751012802124,&#34;a&#34;:1.0},&#34;position&#34;:0.61538463830947876},{&#34;color&#34;:{&#34;r&#34;:0.76078432798385620,&#34;g&#34;:0.95686274766921997,&#34;b&#34;:0.73725491762161255,&#34;a&#34;:1.0},&#34;position&#34;:1.0}],&#34;stopsVar&#34;:[{&#34;color&#34;:{&#34;r&#34;:0.98431372642517090,&#34;g&#34;:0.89803922176361084,&#34;b&#34;:0.44705882668495178,&#34;a&#34;:0.0},&#34;position&#34;:0.0048076924867928028},{&#34;color&#34;:{&#34;r&#34;:0.96600466966629028,&#34;g&#34;:0.90285736322402954,&#34;b&#34;:0.47082844376564026,&#34;a&#34;:0.34074074029922485},&#34;position&#34;:0.44230768084526062},{&#34;color&#34;:{&#34;r&#34;:0.93058067560195923,&#34;g&#34;:0.91217947006225586,&#34;b&#34;:0.51681751012802124,&#34;a&#34;:1.0},&#34;position&#34;:0.61538463830947876},{&#34;color&#34;:{&#34;r&#34;:0.76078432798385620,&#34;g&#34;:0.95686274766921997,&#34;b&#34;:0.73725491762161255,&#34;a&#34;:1.0},&#34;position&#34;:1.0}],&#34;transform&#34;:{&#34;m00&#34;:-36.000003814697266,&#34;m01&#34;:14.532814025878906,&#34;m02&#34;:34.733592987060547,&#34;m10&#34;:-15.0,&#34;m11&#34;:-34.878757476806641,&#34;m12&#34;:49.939376831054688},&#34;opacity&#34;:1.0,&#34;blendMode&#34;:&#34;NORMAL&#34;,&#34;visible&#34;:true}" mask="url(#path-1-inside-1_3675_2)"/>
<mask id="path-3-inside-2_3675_2" fill="white">
<path d="M37.9091 25C37.9091 32.6818 31.6818 38.9091 24 38.9091C16.3183 38.9091 10.0909 32.6818 10.0909 25C10.0909 17.3182 16.3183 11.0909 24 11.0909C31.6818 11.0909 37.9091 17.3182 37.9091 25Z"/>
</mask>
<g clip-path="url(#paint1_angular_3675_2_clip_path)" data-figma-skip-parse="true" mask="url(#path-3-inside-2_3675_2)"><g transform="matrix(-0.0139091 -0.00579545 0.00561495 -0.0134759 24 25)"><foreignObject x="-1418.66" y="-1418.66" width="2837.31" height="2837.31"><div xmlns="http://www.w3.org/1999/xhtml" style="background:conic-gradient(from 90deg,rgba(194, 244, 188, 1) 0deg,rgba(251, 229, 114, 0) 1.73077deg,rgba(246, 230, 120, 0.3407) 159.231deg,rgba(237, 232, 131, 1) 221.538deg,rgba(194, 244, 188, 1) 360deg);height:100%;width:100%;opacity:1"></div></foreignObject></g></g><path d="M37.9091 25H35.9806C35.9806 31.6167 30.6167 36.9805 24 36.9805V38.9091V40.8377C32.7469 40.8377 39.8377 33.7469 39.8377 25H37.9091ZM24 38.9091V36.9805C17.3834 36.9805 12.0195 31.6167 12.0195 25H10.0909H8.16237C8.16237 33.7469 15.2531 40.8377 24 40.8377V38.9091ZM10.0909 25H12.0195C12.0195 18.3833 17.3834 13.0195 24 13.0195V11.0909V9.16234C15.2531 9.16234 8.16237 16.2531 8.16237 25H10.0909ZM24 11.0909V13.0195C30.6167 13.0195 35.9806 18.3833 35.9806 25H37.9091H39.8377C39.8377 16.2531 32.7469 9.16234 24 9.16234V11.0909Z" data-figma-gradient-fill="{&#34;type&#34;:&#34;GRADIENT_ANGULAR&#34;,&#34;stops&#34;:[{&#34;color&#34;:{&#34;r&#34;:0.98431372642517090,&#34;g&#34;:0.89803922176361084,&#34;b&#34;:0.44705882668495178,&#34;a&#34;:0.0},&#34;position&#34;:0.0048076924867928028},{&#34;color&#34;:{&#34;r&#34;:0.96600466966629028,&#34;g&#34;:0.90285736322402954,&#34;b&#34;:0.47082844376564026,&#34;a&#34;:0.34074074029922485},&#34;position&#34;:0.44230768084526062},{&#34;color&#34;:{&#34;r&#34;:0.93058067560195923,&#34;g&#34;:0.91217947006225586,&#34;b&#34;:0.51681751012802124,&#34;a&#34;:1.0},&#34;position&#34;:0.61538463830947876},{&#34;color&#34;:{&#34;r&#34;:0.76078432798385620,&#34;g&#34;:0.95686274766921997,&#34;b&#34;:0.73725491762161255,&#34;a&#34;:1.0},&#34;position&#34;:1.0}],&#34;stopsVar&#34;:[{&#34;color&#34;:{&#34;r&#34;:0.98431372642517090,&#34;g&#34;:0.89803922176361084,&#34;b&#34;:0.44705882668495178,&#34;a&#34;:0.0},&#34;position&#34;:0.0048076924867928028},{&#34;color&#34;:{&#34;r&#34;:0.96600466966629028,&#34;g&#34;:0.90285736322402954,&#34;b&#34;:0.47082844376564026,&#34;a&#34;:0.34074074029922485},&#34;position&#34;:0.44230768084526062},{&#34;color&#34;:{&#34;r&#34;:0.93058067560195923,&#34;g&#34;:0.91217947006225586,&#34;b&#34;:0.51681751012802124,&#34;a&#34;:1.0},&#34;position&#34;:0.61538463830947876},{&#34;color&#34;:{&#34;r&#34;:0.76078432798385620,&#34;g&#34;:0.95686274766921997,&#34;b&#34;:0.73725491762161255,&#34;a&#34;:1.0},&#34;position&#34;:1.0}],&#34;transform&#34;:{&#34;m00&#34;:-27.818185806274414,&#34;m01&#34;:11.229901313781738,&#34;m02&#34;:32.294174194335938,&#34;m10&#34;:-11.590909004211426,&#34;m11&#34;:-26.951766967773438,&#34;m12&#34;:44.271339416503906},&#34;opacity&#34;:1.0,&#34;blendMode&#34;:&#34;NORMAL&#34;,&#34;visible&#34;:true}" mask="url(#path-3-inside-2_3675_2)"/>
<mask id="path-5-inside-3_3675_2" fill="white">
<path d="M33.8182 25C33.8182 30.4224 29.4224 34.8182 24 34.8182C18.5776 34.8182 14.1818 30.4224 14.1818 25C14.1818 19.5776 18.5776 15.1818 24 15.1818C29.4224 15.1818 33.8182 19.5776 33.8182 25Z"/>
</mask>
<g clip-path="url(#paint2_angular_3675_2_clip_path)" data-figma-skip-parse="true" mask="url(#path-5-inside-3_3675_2)"><g transform="matrix(-0.00981818 -0.00409091 0.00396349 -0.00951239 24 25)"><foreignObject x="-1572.21" y="-1572.21" width="3144.43" height="3144.43"><div xmlns="http://www.w3.org/1999/xhtml" style="background:conic-gradient(from 90deg,rgba(194, 244, 188, 1) 0deg,rgba(251, 229, 114, 0) 1.73077deg,rgba(246, 230, 120, 0.3407) 159.231deg,rgba(237, 232, 131, 1) 221.538deg,rgba(194, 244, 188, 1) 360deg);height:100%;width:100%;opacity:1"></div></foreignObject></g></g><path d="M33.8182 25H31.2468C31.2468 29.0023 28.0023 32.2468 24 32.2468V34.8182V37.3896C30.8426 37.3896 36.3896 31.8426 36.3896 25H33.8182ZM24 34.8182V32.2468C19.9977 32.2468 16.7533 29.0023 16.7533 25H14.1818H11.6104C11.6104 31.8426 17.1574 37.3896 24 37.3896V34.8182ZM14.1818 25H16.7533C16.7533 20.9977 19.9977 17.7533 24 17.7533V15.1818V12.6104C17.1574 12.6104 11.6104 18.1574 11.6104 25H14.1818ZM24 15.1818V17.7533C28.0023 17.7533 31.2468 20.9977 31.2468 25H33.8182H36.3896C36.3896 18.1574 30.8426 12.6104 24 12.6104V15.1818Z" data-figma-gradient-fill="{&#34;type&#34;:&#34;GRADIENT_ANGULAR&#34;,&#34;stops&#34;:[{&#34;color&#34;:{&#34;r&#34;:0.98431372642517090,&#34;g&#34;:0.89803922176361084,&#34;b&#34;:0.44705882668495178,&#34;a&#34;:0.0},&#34;position&#34;:0.0048076924867928028},{&#34;color&#34;:{&#34;r&#34;:0.96600466966629028,&#34;g&#34;:0.90285736322402954,&#34;b&#34;:0.47082844376564026,&#34;a&#34;:0.34074074029922485},&#34;position&#34;:0.44230768084526062},{&#34;color&#34;:{&#34;r&#34;:0.93058067560195923,&#34;g&#34;:0.91217947006225586,&#34;b&#34;:0.51681751012802124,&#34;a&#34;:1.0},&#34;position&#34;:0.61538463830947876},{&#34;color&#34;:{&#34;r&#34;:0.76078432798385620,&#34;g&#34;:0.95686274766921997,&#34;b&#34;:0.73725491762161255,&#34;a&#34;:1.0},&#34;position&#34;:1.0}],&#34;stopsVar&#34;:[{&#34;color&#34;:{&#34;r&#34;:0.98431372642517090,&#34;g&#34;:0.89803922176361084,&#34;b&#34;:0.44705882668495178,&#34;a&#34;:0.0},&#34;position&#34;:0.0048076924867928028},{&#34;color&#34;:{&#34;r&#34;:0.96600466966629028,&#34;g&#34;:0.90285736322402954,&#34;b&#34;:0.47082844376564026,&#34;a&#34;:0.34074074029922485},&#34;position&#34;:0.44230768084526062},{&#34;color&#34;:{&#34;r&#34;:0.93058067560195923,&#34;g&#34;:0.91217947006225586,&#34;b&#34;:0.51681751012802124,&#34;a&#34;:1.0},&#34;position&#34;:0.61538463830947876},{&#34;color&#34;:{&#34;r&#34;:0.76078432798385620,&#34;g&#34;:0.95686274766921997,&#34;b&#34;:0.73725491762161255,&#34;a&#34;:1.0},&#34;position&#34;:1.0}],&#34;transform&#34;:{&#34;m00&#34;:-19.636365890502930,&#34;m01&#34;:7.9269895553588867,&#34;m02&#34;:29.854694366455078,&#34;m10&#34;:-8.1818180084228516,&#34;m11&#34;:-19.024776458740234,&#34;m12&#34;:38.603302001953125},&#34;opacity&#34;:1.0,&#34;blendMode&#34;:&#34;NORMAL&#34;,&#34;visible&#34;:true}" mask="url(#path-5-inside-3_3675_2)"/>
<mask id="path-7-inside-4_3675_2" fill="white">
<path d="M28.9091 25C28.9091 27.7112 26.7112 29.9091 24 29.9091C21.2888 29.9091 19.0909 27.7112 19.0909 25C19.0909 22.2888 21.2888 20.0909 24 20.0909C26.7112 20.0909 28.9091 22.2888 28.9091 25Z"/>
</mask>
<g clip-path="url(#paint3_angular_3675_2_clip_path)" data-figma-skip-parse="true" mask="url(#path-7-inside-4_3675_2)"><g transform="matrix(-0.00490909 -0.00204545 0.00198175 -0.00475619 24 25)"><foreignObject x="-1898.52" y="-1898.52" width="3797.04" height="3797.04"><div xmlns="http://www.w3.org/1999/xhtml" style="background:conic-gradient(from 90deg,rgba(194, 244, 188, 1) 0deg,rgba(251, 229, 114, 0) 1.73077deg,rgba(246, 230, 120, 0.3407) 159.231deg,rgba(237, 232, 131, 1) 221.538deg,rgba(194, 244, 188, 1) 360deg);height:100%;width:100%;opacity:1"></div></foreignObject></g></g><path d="M28.9091 25H26.3377C26.3377 26.2911 25.2911 27.3377 24 27.3377V29.9091V32.4805C28.1314 32.4805 31.4806 29.1314 31.4806 25H28.9091ZM24 29.9091V27.3377C22.709 27.3377 21.6624 26.2911 21.6624 25H19.0909H16.5195C16.5195 29.1314 19.8687 32.4805 24 32.4805V29.9091ZM19.0909 25H21.6624C21.6624 23.7089 22.709 22.6623 24 22.6623V20.0909V17.5195C19.8687 17.5195 16.5195 20.8686 16.5195 25H19.0909ZM24 20.0909V22.6623C25.2911 22.6623 26.3377 23.7089 26.3377 25H28.9091H31.4806C31.4806 20.8686 28.1314 17.5195 24 17.5195V20.0909Z" data-figma-gradient-fill="{&#34;type&#34;:&#34;GRADIENT_ANGULAR&#34;,&#34;stops&#34;:[{&#34;color&#34;:{&#34;r&#34;:0.98431372642517090,&#34;g&#34;:0.89803922176361084,&#34;b&#34;:0.44705882668495178,&#34;a&#34;:0.0},&#34;position&#34;:0.0048076924867928028},{&#34;color&#34;:{&#34;r&#34;:0.96600466966629028,&#34;g&#34;:0.90285736322402954,&#34;b&#34;:0.47082844376564026,&#34;a&#34;:0.34074074029922485},&#34;position&#34;:0.44230768084526062},{&#34;color&#34;:{&#34;r&#34;:0.93058067560195923,&#34;g&#34;:0.91217947006225586,&#34;b&#34;:0.51681751012802124,&#34;a&#34;:1.0},&#34;position&#34;:0.61538463830947876},{&#34;color&#34;:{&#34;r&#34;:0.76078432798385620,&#34;g&#34;:0.95686274766921997,&#34;b&#34;:0.73725491762161255,&#34;a&#34;:1.0},&#34;position&#34;:1.0}],&#34;stopsVar&#34;:[{&#34;color&#34;:{&#34;r&#34;:0.98431372642517090,&#34;g&#34;:0.89803922176361084,&#34;b&#34;:0.44705882668495178,&#34;a&#34;:0.0},&#34;position&#34;:0.0048076924867928028},{&#34;color&#34;:{&#34;r&#34;:0.96600466966629028,&#34;g&#34;:0.90285736322402954,&#34;b&#34;:0.47082844376564026,&#34;a&#34;:0.34074074029922485},&#34;position&#34;:0.44230768084526062},{&#34;color&#34;:{&#34;r&#34;:0.93058067560195923,&#34;g&#34;:0.91217947006225586,&#34;b&#34;:0.51681751012802124,&#34;a&#34;:1.0},&#34;position&#34;:0.61538463830947876},{&#34;color&#34;:{&#34;r&#34;:0.76078432798385620,&#34;g&#34;:0.95686274766921997,&#34;b&#34;:0.73725491762161255,&#34;a&#34;:1.0},&#34;position&#34;:1.0}],&#34;transform&#34;:{&#34;m00&#34;:-9.8181829452514648,&#34;m01&#34;:3.9634947776794434,&#34;m02&#34;:26.927377700805664,&#34;m10&#34;:-4.0909090042114258,&#34;m11&#34;:-9.5123882293701172,&#34;m12&#34;:31.801651000976562},&#34;opacity&#34;:1.0,&#34;blendMode&#34;:&#34;NORMAL&#34;,&#34;visible&#34;:true}" mask="url(#path-7-inside-4_3675_2)"/>
<defs>
<clipPath id="paint0_angular_3675_2_clip_path"><path d="M42 25H40.7143C40.7143 34.231 33.231 41.7143 24 41.7143V43V44.2857C34.6512 44.2857 43.2857 35.6512 43.2857 25H42ZM24 43V41.7143C14.769 41.7143 7.28571 34.231 7.28571 25H6H4.71429C4.71429 35.6512 13.3488 44.2857 24 44.2857V43ZM6 25H7.28571C7.28571 15.769 14.769 8.28571 24 8.28571V7V5.71429C13.3488 5.71429 4.71429 14.3488 4.71429 25H6ZM24 7V8.28571C33.231 8.28571 40.7143 15.769 40.7143 25H42H43.2857C43.2857 14.3488 34.6512 5.71429 24 5.71429V7Z" mask="url(#path-1-inside-1_3675_2)"/></clipPath><clipPath id="paint1_angular_3675_2_clip_path"><path d="M37.9091 25H35.9806C35.9806 31.6167 30.6167 36.9805 24 36.9805V38.9091V40.8377C32.7469 40.8377 39.8377 33.7469 39.8377 25H37.9091ZM24 38.9091V36.9805C17.3834 36.9805 12.0195 31.6167 12.0195 25H10.0909H8.16237C8.16237 33.7469 15.2531 40.8377 24 40.8377V38.9091ZM10.0909 25H12.0195C12.0195 18.3833 17.3834 13.0195 24 13.0195V11.0909V9.16234C15.2531 9.16234 8.16237 16.2531 8.16237 25H10.0909ZM24 11.0909V13.0195C30.6167 13.0195 35.9806 18.3833 35.9806 25H37.9091H39.8377C39.8377 16.2531 32.7469 9.16234 24 9.16234V11.0909Z" mask="url(#path-3-inside-2_3675_2)"/></clipPath><clipPath id="paint2_angular_3675_2_clip_path"><path d="M33.8182 25H31.2468C31.2468 29.0023 28.0023 32.2468 24 32.2468V34.8182V37.3896C30.8426 37.3896 36.3896 31.8426 36.3896 25H33.8182ZM24 34.8182V32.2468C19.9977 32.2468 16.7533 29.0023 16.7533 25H14.1818H11.6104C11.6104 31.8426 17.1574 37.3896 24 37.3896V34.8182ZM14.1818 25H16.7533C16.7533 20.9977 19.9977 17.7533 24 17.7533V15.1818V12.6104C17.1574 12.6104 11.6104 18.1574 11.6104 25H14.1818ZM24 15.1818V17.7533C28.0023 17.7533 31.2468 20.9977 31.2468 25H33.8182H36.3896C36.3896 18.1574 30.8426 12.6104 24 12.6104V15.1818Z" mask="url(#path-5-inside-3_3675_2)"/></clipPath><clipPath id="paint3_angular_3675_2_clip_path"><path d="M28.9091 25H26.3377C26.3377 26.2911 25.2911 27.3377 24 27.3377V29.9091V32.4805C28.1314 32.4805 31.4806 29.1314 31.4806 25H28.9091ZM24 29.9091V27.3377C22.709 27.3377 21.6624 26.2911 21.6624 25H19.0909H16.5195C16.5195 29.1314 19.8687 32.4805 24 32.4805V29.9091ZM19.0909 25H21.6624C21.6624 23.7089 22.709 22.6623 24 22.6623V20.0909V17.5195C19.8687 17.5195 16.5195 20.8686 16.5195 25H19.0909ZM24 20.0909V22.6623C25.2911 22.6623 26.3377 23.7089 26.3377 25H28.9091H31.4806C31.4806 20.8686 28.1314 17.5195 24 17.5195V20.0909Z" mask="url(#path-7-inside-4_3675_2)"/></clipPath></defs>
</svg>
