<svg width="303" height="170" viewBox="0 0 303 170" fill="none" xmlns="http://www.w3.org/2000/svg">
<rect width="303" height="170" fill="white"/>
<path fill-rule="evenodd" clip-rule="evenodd" d="M174.52 60.926C171.355 62.5645 169.593 64.884 169.153 67.2916C168.714 69.6993 169.555 72.4254 171.963 74.9347C172.976 75.9901 174.235 76.9639 175.701 77.7924L163.675 79.2333C160.856 75.4822 159.361 70.8343 160.261 65.9024C161.326 60.0697 165.415 55.6303 170.492 53.0024C175.568 50.375 181.887 49.3821 188.29 50.3823C193.629 51.2165 198.403 53.338 202.075 56.3343L196.233 63.3099C193.842 61.3596 190.55 59.8416 186.673 59.236C182.002 58.5062 177.687 59.287 174.52 60.926ZM137.83 82.3299L122.966 50.7351L122.934 50.7351L113.171 50.7351L113.171 50.7351H113.02L113.099 50.9047L97.8735 87.1173L108.155 85.8855L118.255 61.8632L128.415 83.458L137.83 82.3299ZM129.76 86.3183L139.176 85.1901L154.487 117.735H144.541L129.76 86.3183ZM106.817 89.0672L96.5357 90.2991L85 117.735H94.7632L106.817 89.0672ZM49 92.9731L49 50.7351H40L40 94.0515L49 92.9731ZM40 97.0729L49 95.9946L49 108.735H78.5V117.735H49H48.5H40L40 97.0729ZM166.118 81.9621L181.948 80.0653C182.242 80.1233 182.541 80.1759 182.842 80.2231L182.842 80.2239C189.151 81.264 194.679 84.1104 198.49 88.0936C202.346 92.1239 204.623 97.5625 203.548 103.393C202.473 109.224 198.378 113.658 193.296 116.278C188.215 118.898 181.894 119.882 175.493 118.872C170.155 118.03 165.385 115.902 161.718 112.9L167.572 105.934C169.959 107.887 173.249 109.41 177.124 110.021C181.795 110.758 186.111 109.983 189.28 108.349C192.449 106.715 194.214 104.398 194.658 101.991C195.102 99.5838 194.265 96.8564 191.861 94.3436C189.473 91.8476 185.714 89.8048 181.089 89.0551L181.052 89.049L180.991 89.0394L180.991 89.0392C175.1 88.0741 169.888 85.5338 166.118 81.9621ZM231.5 74.1282V117.735H240.5V73.0499L231.5 74.1282ZM240.5 70.0284V59.7351H263V50.7351H210V59.7351H231.5V71.1068L240.5 70.0284Z" fill="black"/>
</svg>
